<svg xmlns="http://www.w3.org/2000/svg" xmlns:xlink="http://www.w3.org/1999/xlink" viewBox="0 0 807.76 500"><defs><style>.cls-1{fill:none;}.cls-2{isolation:isolate;}.cls-3{clip-path:url(#clip-path);}.cls-4{fill:url(#linear-gradient);}.cls-5{fill:#68c4d9;}.cls-6{fill:#78c9c3;}.cls-7{fill:#aadbd7;}.cls-8{fill:#f7f2da;}.cls-9{fill:#b2987d;mix-blend-mode:multiply;opacity:0.61;}.cls-10{fill:#fdfcf5;}.cls-11{fill:url(#linear-gradient-2);}.cls-12{fill:url(#linear-gradient-3);}.cls-13{fill:url(#linear-gradient-4);}.cls-14{fill:url(#linear-gradient-5);}.cls-15{fill:url(#linear-gradient-6);}.cls-16{fill:#387578;}.cls-17{fill:#689775;}.cls-18{fill:#f3e38b;}</style><clipPath id="clip-path" transform="translate(57.76)"><rect class="cls-1" width="750" height="500.12"/></clipPath><linearGradient id="linear-gradient" x1="432.76" y1="241.79" x2="432.76" y2="170.68" gradientUnits="userSpaceOnUse"><stop offset="0" stop-color="#faffe8"/><stop offset="1" stop-color="#68c4d9"/></linearGradient><linearGradient id="linear-gradient-2" x1="74.71" y1="95.21" x2="74.71" y2="237.06" gradientUnits="userSpaceOnUse"><stop offset="0" stop-color="#faffe8"/><stop offset="1" stop-color="#fffff4" stop-opacity="0"/></linearGradient><linearGradient id="linear-gradient-3" x1="22.63" y1="149.62" x2="22.63" y2="234.63" xlink:href="#linear-gradient-2"/><linearGradient id="linear-gradient-4" x1="474.82" y1="95.21" x2="474.82" y2="237.06" gradientTransform="matrix(-1, 0, 0, 1, 810.23, 0)" xlink:href="#linear-gradient-2"/><linearGradient id="linear-gradient-5" x1="401.25" y1="136.96" x2="401.25" y2="235.2" gradientTransform="matrix(-1, 0, 0, 1, 810.23, 0)" gradientUnits="userSpaceOnUse"><stop offset="0" stop-color="#faffe8"/><stop offset="0.25" stop-color="#faffe8" stop-opacity="0.99"/><stop offset="0.38" stop-color="#faffe8" stop-opacity="0.96"/><stop offset="0.49" stop-color="#faffe9" stop-opacity="0.91"/><stop offset="0.59" stop-color="#fbffea" stop-opacity="0.83"/><stop offset="0.68" stop-color="#fbffeb" stop-opacity="0.73"/><stop offset="0.76" stop-color="#fcffed" stop-opacity="0.61"/><stop offset="0.83" stop-color="#fdffee" stop-opacity="0.46"/><stop offset="0.9" stop-color="#fefff1" stop-opacity="0.29"/><stop offset="0.97" stop-color="#fefff3" stop-opacity="0.11"/><stop offset="1" stop-color="#fffff4" stop-opacity="0"/></linearGradient><linearGradient id="linear-gradient-6" x1="245.8" y1="87.63" x2="245.8" y2="172.63" gradientTransform="matrix(-1, 0, 0, 1, 810.23, 0)" xlink:href="#linear-gradient-2"/></defs><g class="cls-2"><g id="Layer_2" data-name="Layer 2"><g id="BACKGROUND"><g class="cls-3"><rect class="cls-4" x="57.76" width="750" height="231.07"/><rect class="cls-5" x="57.76" y="231.07" width="750" height="268.93"/><path class="cls-6" d="M239.36,339.06s4-1,4-4c1-36,46-32,72-34,48-4,100-1,145-19-3-6-4-12,3-14,57-14,121-3,170-25-25.65-12.46-55.06-10.43-83.51-12H0V369.72c6.12-.94,12.24-1.9,18.36-2.66C93.36,358.06,164.36,347.06,239.36,339.06Z" transform="translate(57.76)"/><path class="cls-7" d="M105.36,391.06c20-9,43-6,64-12,13-3,23-12,35-17,22-10,46-3,69-7,5,0,7-6,6-11-3-9-12-10-16-17-2-5,5-8,8-8,35-4,68-10,102-13,10,0,20-4,30-6,28-4,54-8,81-14-5-5-12-12-7-14,22-11,48-6,73-8,8-1,16-3,24-4,26-4,53-2,76-14-1.29-12.29-16.37-12.87-29.85-15H549.85c28.45,1.56,57.86-.47,83.51,12-49,22-113,11-170,25-7,2-6,8-3,14-45,18-97,15-145,19-26,2-71-2-72,34,0,3-4,4-4,4-75,8-146,19-221,28-6.12.76-12.24,1.72-18.36,2.66v38.41c10.11-1.66,20.23-3.06,30.36-4.07C56.36,401.06,81.36,402.06,105.36,391.06Z" transform="translate(57.76)"/><path class="cls-8" d="M620.51,231.07c13.48,2.12,28.56,2.7,29.85,15-23,12-50,10-76,14-8,1-16,3-24,4-25,2-51-3-73,8-5,2,2,9,7,14-27,6-53,10-81,14-10,2-20,6-30,6-34,3-67,9-102,13-3,0-10,3-8,8,4,7,13,8,16,17,1,5-1,11-6,11-23,4-47-3-69,7-12,5-22,14-35,17-21,6-44,3-64,12-24,11-49,10-75,13-10.13,1-20.25,2.41-30.36,4.07V500H750V231.07Z" transform="translate(57.76)"/><path class="cls-8" d="M72.24,477.06c86,16,167-1,250-7,80-6,161,8,239-18,7-3,14-4,21-1,50,15,107,23,147-14,7-7,0-25,13-32,2.57-1.19,5.16-2.3,7.76-3.37V231.07H620.51c13.48,2.12,28.56,2.7,29.85,15-23,12-50,10-76,14-8,1-16,3-24,4-25,2-51-3-73,8-5,2,2,9,7,14-27,6-53,10-81,14-10,2-20,6-30,6-34,3-67,9-102,13-3,0-10,3-8,8,4,7,13,8,16,17,1,5-1,11-6,11-23,4-47-3-69,7-12,5-22,14-35,17-21,6-44,3-64,12-24,11-49,10-75,13-10.13,1-20.25,2.41-30.36,4.07V484C22.06,474.27,48.85,472.53,72.24,477.06Z" transform="translate(57.76)"/><path class="cls-9" d="M750,500V401.69c-2.6,1.07-5.19,2.18-7.76,3.37-13,7-6,25-13,32-40,37-97,29-147,14-7-3-14-2-21,1-78,26-159,12-239,18-83,6-164,23-250,7C48.85,472.53,22.06,474.27,0,484v16Z" transform="translate(57.76)"/><path class="cls-10" d="M68.07,239.19c6.23.23,12.56.61,18.68-.15,2.93-.36,5.77-1,8.74-1.22a72.28,72.28,0,0,1,12.47.47c21.25,1.91,42.78,2.33,64.25,2.75l-65.67-.82c-25.18-.32-50.39-.64-75.55.15-7.06.22-14.25.38-21.24,1,9,.49,19.43-1.62,28.6-2C48.23,238.88,58.17,238.84,68.07,239.19Z" transform="translate(57.76)"/><path class="cls-10" d="M298,249c10.18,0,20.51,0,30.51-.36,4.78-.16,9.43-.38,14.26-.5,6.77-.17,13.62-.12,20.38-.08,34.72.2,69.88,0,104.94-.28l-107.25.87c-41.14.33-82.31.66-123.4,1.31-11.53.18-23.27.35-34.69.64,14.74,0,31.73-.8,46.7-1.07C265.59,249.2,281.82,249,298,249Z" transform="translate(57.76)"/><path class="cls-10" d="M133.38,291.61c6.23.22,12.54.64,18.64-.39,2.91-.5,5.74-1.32,8.69-1.66,4.13-.47,8.32,0,12.45.47,21.22,2.23,42.69,2.56,64.11,2.87l-65.5-.38c-25.12-.15-50.27-.29-75.35,1-7,.36-14.21.64-21.18,1.48,9,.54,19.36-2.27,28.5-2.89A284.57,284.57,0,0,1,133.38,291.61Z" transform="translate(57.76)"/><path class="cls-10" d="M493.86,238.16a93.91,93.91,0,0,0,13.22-.23c2.07-.25,4.08-.66,6.17-.83a59.2,59.2,0,0,1,8.83.2c15.06,1,30.29,1.16,45.49,1.27l-46.48,0c-17.82,0-35.67,0-53.46.65-5,.19-10.09.34-15,.77,6.39.24,13.74-1.16,20.22-1.48C479.82,238.11,486.85,238,493.86,238.16Z" transform="translate(57.76)"/><path class="cls-11" d="M-3.09,134.26C8.65,119.79,30.1,114.15,47.45,121s29.21,25.55,28,44.15a20.63,20.63,0,0,1,25.19,26.49,17.16,17.16,0,0,1,24.31,19.65c7.26-6,20.26-1.76,22.56,7.39a19.78,19.78,0,0,1,32.33,10.74,9.62,9.62,0,0,1,13.32-.2c3.77-4,11.42-3,14.05,1.82H-54c-4.09-6.25-5-16.68-2.05-23.55a23.14,23.14,0,0,1,16.88-13.38c-4.39-4.92-1.45-14.64,1.31-20.62A17.44,17.44,0,0,1-22,163.58c-4.56-1.46-4.7-7.63-5.56-12.33a13.59,13.59,0,0,1,4.79-12.8C-17.91,134.59-9.28,134.12-3.09,134.26Z" transform="translate(57.76)"/><path class="cls-12" d="M-24,173a27.26,27.26,0,0,1,30.29-8,27.26,27.26,0,0,1,16.77,26.45,12.36,12.36,0,0,1,15.09,15.88,10.28,10.28,0,0,1,14.57,11.78c4.36-3.61,12.15-1.06,13.52,4.42A11.86,11.86,0,0,1,85.62,230a5.76,5.76,0,0,1,8-.12A5.5,5.5,0,0,1,102,231H-54.48a16.51,16.51,0,0,1-1.23-14.11,13.86,13.86,0,0,1,10.11-8c-2.63-3-.87-8.78.79-12.36a10.43,10.43,0,0,1,9.5-5.91c-2.73-.88-2.82-4.57-3.33-7.39a8.13,8.13,0,0,1,2.87-7.67C-32.87,173.22-27.7,172.94-24,173Z" transform="translate(57.76)"/><path class="cls-13" d="M413.21,134.26C401.47,119.79,380,114.15,362.67,121s-29.21,25.55-28,44.15a20.63,20.63,0,0,0-25.18,26.49,17.16,17.16,0,0,0-24.32,19.65c-7.26-6-20.26-1.76-22.56,7.39a19.78,19.78,0,0,0-32.33,10.74,9.62,9.62,0,0,0-13.32-.2c-3.77-4-11.42-3-14.05,1.82H464.09c4.09-6.25,5-16.68,2.05-23.55a23.14,23.14,0,0,0-16.88-13.38c4.39-4.92,1.45-14.64-1.31-20.62a17.44,17.44,0,0,0-15.86-9.87c4.56-1.46,4.7-7.63,5.56-12.33a13.59,13.59,0,0,0-4.79-12.8C428,134.59,419.4,134.12,413.21,134.26Z" transform="translate(57.76)"/><path class="cls-14" d="M462.86,164a30.65,30.65,0,0,0-54.37,21.37,14.28,14.28,0,0,0-17.44,18.34,11.89,11.89,0,0,0-16.84,13.61c-5-4.16-14-1.21-15.63,5.12a13.7,13.7,0,0,0-22.39,7.44,6.65,6.65,0,0,0-9.22-.14,6.36,6.36,0,0,0-9.73,1.26H498.1a19.12,19.12,0,0,0,1.42-16.31,16,16,0,0,0-11.69-9.27c3-3.4,1-10.14-.91-14.28a12.07,12.07,0,0,0-11-6.83c3.15-1,3.25-5.28,3.85-8.54a9.39,9.39,0,0,0-3.32-8.86C473.12,164.23,467.15,163.9,462.86,164Z" transform="translate(57.76)"/><path class="cls-15" d="M611.06,111a26.52,26.52,0,0,0-47,18.48,12.37,12.37,0,0,0-15.09,15.88,10.29,10.29,0,0,0-14.58,11.78c-4.35-3.61-12.14-1.06-13.52,4.42A11.86,11.86,0,0,0,501.45,168a5.75,5.75,0,0,0-8-.11,5.49,5.49,0,0,0-8.42,1.09h156.5a16.53,16.53,0,0,0,1.23-14.12,13.86,13.86,0,0,0-10.12-8c2.64-2.94.88-8.78-.78-12.36a10.45,10.45,0,0,0-9.5-5.91c2.73-.88,2.81-4.57,3.33-7.39a8.16,8.16,0,0,0-2.87-7.67C619.94,111.22,614.77,110.94,611.06,111Z" transform="translate(57.76)"/><path class="cls-16" d="M750,163.33v-9c-1.21-.43-2.43-.86-3.64-1.32a16.7,16.7,0,0,0-9-.59A64,64,0,0,0,750,163.33Z" transform="translate(57.76)"/><path class="cls-16" d="M696.36,156.06c-1,2,2,3,2,3,5-4,10,0,15-2l.85-.36c-6.12-1.82-10.93-6.89-16.82-7.64C698.86,151,698.91,153.5,696.36,156.06Z" transform="translate(57.76)"/><path class="cls-16" d="M634.36,127.06c12,1,11,14,18,20,4,2,13-2,19,5,.5,1,2.77,1,4.65,0-5.83-2.56-10.91-8.51-13.65-14-7-12-12-26-23-30a23.79,23.79,0,0,0-10.14-1.12C636.81,111.41,641.4,119.23,634.36,127.06Z" transform="translate(57.76)"/><path class="cls-16" d="M581.36,170.06c0-3.54-1.79-6.31-4.2-8.83a5.5,5.5,0,0,1-2.8.83,51.41,51.41,0,0,0-17.42.37c6.67,1.29,12.55,4.95,18.42,8.63C577.36,172.06,581.36,172.06,581.36,170.06Z" transform="translate(57.76)"/><path class="cls-16" d="M467.36,198.06c9,0,16,2,25,7,5,3,12,0,16-6a60.14,60.14,0,0,1-8.92-4.17,29.72,29.72,0,0,1-14.08-1.83c-7.62-2.08-15.72-5.12-23.63-4.79C466.53,189.68,469.51,192.33,467.36,198.06Z" transform="translate(57.76)"/><path class="cls-16" d="M383.36,206.06c1,3,6-1,9,0,11,8,23,6,34,1a47,47,0,0,0-8.82-4.05l-.18.05c-14.18,3.15-27.12-4.25-40.28-5.09C380.27,199.72,382.85,202.5,383.36,206.06Z" transform="translate(57.76)"/><path class="cls-17" d="M737.32,152.47c-5.09.91-10.33,3.33-16,4.59a14.67,14.67,0,0,1-7.15-.36l-.85.36c-5,2-10-2-15,2,0,0-3-1-2-3,2.55-2.56,2.5-5.11,1-7h0c-4,0-9,2-13,4a13.33,13.33,0,0,1-8.35-1c-1.88,1-4.15,1-4.65,0-6-7-15-3-19-5-7-6-6-19-18-20,7-7.83,2.45-15.65-5.14-20.12-19.69,2.11-36.44,28.28-45.86,47.12-1.5,2.25-3.57,5.63-6.2,7.17,2.41,2.52,4.2,5.29,4.2,8.83,0,2-4,2-6,1-5.87-3.68-11.75-7.34-18.42-8.63-18.39,3.6-32.09,17-47.58,28.63a21.78,21.78,0,0,1-9.92,3.83,60.14,60.14,0,0,0,8.92,4.17c-4,6-11,9-16,6-9-5-16-7-25-7,2.15-5.73-.83-8.38-5.63-9.79a23.12,23.12,0,0,0-10.37,2.79A196.48,196.48,0,0,1,417.54,203a47,47,0,0,1,8.82,4.05c-11,5-23,7-34-1-3-1-8,3-9,0-.51-3.56-3.09-6.34-6.28-8.09a30.53,30.53,0,0,0-10.72,1.09c-25,8-51,14-76,23-7.88,3.15-16,6.29-24.62,9h24.37a439.86,439.86,0,0,1,95.25-10c36,0,72,2,108-1,26-2,51-16,77-26,16-7,27,6,41,9,29,6,54-15,81-24,9-2,18-7,27-3A130.16,130.16,0,0,0,750,186.37v-23A64,64,0,0,1,737.32,152.47Z" transform="translate(57.76)"/><path class="cls-18" d="M641.36,217.06c19,5,41,9,54-4,14.95-14.95,36.08-16.28,54.64-11.79v-14.9a130.16,130.16,0,0,1-30.64-10.31c-9-4-18,1-27,3-27,9-52,30-81,24-14-3-25-16-41-9-26,10-51,24-77,26-36,3-72,1-108,1a439.86,439.86,0,0,0-95.25,10H531.3c26.05-4.37,52.23-3.2,79.06-4C621.36,227.06,629.36,214.06,641.36,217.06Z" transform="translate(57.76)"/><path class="cls-16" d="M681.36,226.06c-2.26-1.62-4.62-3-7-4.38-10.51.72-22.25-1.79-33-4.62a14.54,14.54,0,0,0-4.76-.4c6.08,2,11.69,5.37,17.76,7.4C663.36,226.06,672.36,229.06,681.36,226.06Z" transform="translate(57.76)"/><path class="cls-17" d="M727.66,199.14c-11.74.75-23.17,4.79-32.3,13.92-5.63,5.63-13,8.06-21,8.62,2.36,1.36,4.72,2.76,7,4.38-9,3-18,0-27-2-6.07-2-11.68-5.41-17.76-7.4-9.51.75-16.76,10.4-26.24,10.4-26.83.81-53-.36-79.06,4H750v-16a36,36,0,0,1-5.64-4C739,206.61,733.69,202.18,727.66,199.14Z" transform="translate(57.76)"/><path class="cls-16" d="M727.66,199.14c6,3,11.37,7.47,16.7,11.92a36,36,0,0,0,5.64,4V201.27A75.21,75.21,0,0,0,727.66,199.14Z" transform="translate(57.76)"/></g></g></g></g></svg>