<svg xmlns="http://www.w3.org/2000/svg" viewBox="0 0 208 93.69"><defs><style>.cls-1{fill:#fff;}.cls-2{fill:#cce1f4;}</style></defs><g id="Layer_2" data-name="Layer 2"><g id="OBJECTS"><path class="cls-1" d="M193.43,52.45a25.46,25.46,0,0,0-2.74-15.62l-.59-1c-4-6.68-12.8-10.86-22.56-8.39a14.2,14.2,0,0,0-19.22-7.2C140.68,10.74,124.57-4.1,99.43,1.06S62.78,31.69,62.78,31.69c-8.7-8.07-26.75-4.6-35.55,3.78C18,44.29,18.12,51,18.12,51,12,47.06,2.11,51,.43,56.87A9.91,9.91,0,0,0,5.25,68.62L6,69c8.21,4.05,13.27,1.8,13.27,1.8,9.8,21.12,28.31,15.63,36.77,11.33,2.65-1.35,8.1-3.68,8.1-3.68s15.19,14.43,36.29,15.23c12.6.49,34.1-6.07,39.13-17.64,22.61,13,62.52,3,67.71-9.91C209.38,61,207.37,48.64,193.43,52.45Z"/><path class="cls-2" d="M207.31,66.12c-5.19,13-45.1,22.92-67.71,9.91-5,11.57-26.53,18.13-39.13,17.64-21.1-.8-36.29-15.23-36.29-15.23s-5.45,2.33-8.1,3.68c-8.46,4.3-27,9.79-36.77-11.33,0,0-5.06,2.25-13.27-1.8l-.79-.37c.94-.17,1.86-.36,2.75-.57,12.1-2.87,28.3-14.41,39.05-3.6C47,56,38.47,50.24,30.49,51.22A14.78,14.78,0,0,1,47.1,46.07,15.07,15.07,0,0,1,56.77,61a30.87,30.87,0,0,1,20.41-2.8c7.56,1.35,12.5,6.08,15.61,13.1-2.3-12.43-8.86-19.5-21.46-18.77-.42-7.1.37-11.93,4.65-17.62s11.88-9.19,18.74-7.32,11.8,9.95,9.16,16.56c1.11-1.69,5.13-2.68,7.5-1.07,1.86,1.26,2.35,4.81,1.91,6.28a13.57,13.57,0,0,1,26,1.21c.95-10.53-9-20.64-19.57-19.83C134.34,22.64,154,28,156.22,44.6c5.65-18.58,30.62-14.83,34.47-7.77,2.82,5,3.59,11.9,2.74,15.62C207.37,48.64,209.38,61,207.31,66.12Z"/></g></g></svg>