<svg xmlns="http://www.w3.org/2000/svg" viewBox="0 0 179.35 70.44"><defs><style>.cls-1{fill:#fff;}.cls-2{fill:#cce1f4;}</style></defs><g id="Layer_2" data-name="Layer 2"><g id="OBJECTS"><path class="cls-1" d="M179.08,34.6a3.09,3.09,0,0,1-.5.62c-9.06,8.55-46.19,6.06-46.19,6.06s1.23,7.59-5.27,8.47c-4.33.59-7.9-2.8-7.9-2.8S113,58.29,101.91,59.69a15.33,15.33,0,0,1-13.45-5s-1.4,16.29-24,15.75c-9.84-.25-15.61-3.91-19-8-3.09,2.36-7.08,3.81-11.79,2a13.73,13.73,0,0,1-8.07-7.75c-6.78,1.1-14.6.44-20.7-5.58-5.56-5.48-6-13-3.42-19.46a21.82,21.82,0,0,1,8.91-10.8C21.18,14.59,33,17,35.73,22c1.15-6.3,7.32-6.83,9.47-5,.42-8.2,7-15.46,18-16.84S82.36,5,84,12.17A9.49,9.49,0,0,1,95.81,7.81a9.5,9.5,0,0,1,4.94,11.57,24.41,24.41,0,0,1,43,9.08C158,19.41,182.15,29.23,179.08,34.6Z"/><path class="cls-2" d="M179.08,34.6a3.09,3.09,0,0,1-.5.62c-9.06,8.55-46.19,6.06-46.19,6.06s1.23,7.59-5.27,8.47c-4.33.59-7.9-2.8-7.9-2.8S113,58.29,101.91,59.69a15.33,15.33,0,0,1-13.45-5s-1.4,16.29-24,15.75c-9.84-.25-15.61-3.91-19-8-3.09,2.36-7.08,3.81-11.79,2a13.73,13.73,0,0,1-8.07-7.75c-6.78,1.1-14.6.44-20.7-5.58-5.56-5.48-6-13-3.42-19.46,8.9,2.19,13,12,14,13.16-2.48-9.23,6.2-19.6,15.73-18.78,8.86.76,17.39,6.51,19.19,17.82-8.85.73-17.26,3.71-19.62,11.21C37,48.36,48.93,45,55.14,51.8c-.09-3.32,2.76-19.73,13.22-24.87s26,0,29.34,7.16c3.47-10.17,22.52-8.83,28.14-3.63a25.44,25.44,0,0,0-14.1,10.08c5.18-4.06,8.29-3.91,14.17-.93,2.82-9,11.88-7,16.23-4.39,6.11-6.78,17.85-4.87,22.35-3.85C167,31.92,173.13,33.54,179.08,34.6Z"/></g></g></svg>