<svg xmlns="http://www.w3.org/2000/svg" viewBox="0 0 234.52 119.25"><defs><style>.cls-1{fill:#fff;}.cls-2{fill:#cce1f4;}</style></defs><g id="Layer_2" data-name="Layer 2"><g id="OBJECTS"><path class="cls-1" d="M0,73.35C0,74.2.1,75.09.22,76c.38,3,5,9.18,15.82,13.35,13,5,29,7.1,40.07-1.28-.84,7.22,7.23,11.88,14,14.52,7.19,2.8,14.52,5.64,22.22,6s16-2.3,20.45-8.55c6.34,11,22.5,14.94,33.16,8a26.53,26.53,0,0,0,48.25-16.5c6,3.28,14.64-2.34,14.06-9.17,5.88,5.35,16,4.1,21.41-1.75s6.16-15,3.1-22.35a30.58,30.58,0,0,0-9.9-12.31,17,17,0,0,0-.43-5.42,15.23,15.23,0,0,0-2.19-4.9,16.32,16.32,0,0,0-18.72-5.8c2.64-8.23-3.86-18-12.47-18.84-8.33-.76-16.23,7.15-15.73,15.44-.41-3.79-3.51-6.69-6.64-8.92-7.33-5.24-13.53-.47-14.95.1C149.6,7.4,140-.4,125.91,0s-23,9.73-23.68,19a12,12,0,0,0-15.61-3.16,12,12,0,0,0-3.94,15.43,31.64,31.64,0,0,0-32.2-6.5A31.6,31.6,0,0,0,30.62,51C21,48-.57,53.88,0,73.35Z"/><path class="cls-1" d="M158,73.36A16.74,16.74,0,0,0,147.86,76a3,3,0,0,1-1.76.64,3.17,3.17,0,0,1-1.74-1.26c-2.75-2.92-7.15-3.81-11.12-3.24S125.6,74.55,122,76.34c.56-4,1.26-8.3,4.16-11.1a10.57,10.57,0,0,1,9.75-2.37,14.53,14.53,0,0,1,8.28,6.05c.58.85,1.25,1.86,2.28,1.94a3.51,3.51,0,0,0,1.83-.59,18.95,18.95,0,0,1,27.41,13.42C175.1,80.3,161.1,73.63,158,73.36Z"/><path class="cls-2" d="M232.74,58.23a30.58,30.58,0,0,0-9.9-12.31c-6-4.1-11.39-3.57-15.94-1,13.62,5.48,11.39,20.35,11.39,20.35-3.78-11-9.7-14.31-14.9-16-5.67-1.81-11.56-.32-14.95,3.37-2.52,2.74-2.82,7-1.74,10.65-9.47-10.08-19.46-10.62-23.73-7.68a15.82,15.82,0,0,1,11.71,10.88c-24.52-12-38.28.33-38.28.33s.91-12.15,17.56-12.65c-.9-8.63-6.86-17.93-17-18.56-12.53-.77-22.87,8.16-22.37,21.54-4.48-1-9.13,3.88-7.92,8.3-3.11-2.45-6.4-5-10.31-5.63S87.82,61.27,87,65.15a10.92,10.92,0,0,0-9.43,11.47,24.59,24.59,0,0,0-28.32-3.4C53.52,60.43,69.94,53.36,82.17,59,81.89,50,73,42.26,64,43.2S48,53.63,49.59,62.49c-6.42-2-13.74,4.83-12.15,11.37C34.9,65.48,25.26,63.41,19.59,65c8,2.1,11.2,11.81,10.19,18.6C27.18,77.4,19.19,64.68,0,73.35,0,74.2.1,75.09.22,76c.38,3,5,9.18,15.82,13.35,13,5,29,7.1,40.07-1.28-.84,7.22,7.23,11.88,14,14.52,7.19,2.8,14.52,5.64,22.22,6s16-2.3,20.45-8.55c6.34,11,22.5,14.94,33.16,8a26.53,26.53,0,0,0,48.25-16.5c6,3.28,14.64-2.34,14.06-9.17,5.88,5.35,16,4.1,21.41-1.75S235.8,65.56,232.74,58.23Z"/></g></g></svg>