<svg xmlns="http://www.w3.org/2000/svg" viewBox="0 0 343.16 118.18"><defs><style>.cls-1{fill:#fff;}.cls-2{fill:#cce1f4;}</style></defs><g id="Layer_2" data-name="Layer 2"><g id="OBJECTS"><path class="cls-1" d="M341.79,55c-3.64-2.62-14.05-5-25.16-4.94-9.28.05-27.22,5-27.22,5-6.54-5.84-30-11-45.53.13-4.16-11.67-20.86-16.37-30.41-8.56C216.81,30.23,204.2,12.28,187.7,10s-33.43,11.53-34.61,28.26c.67-10-12.05-17.9-20.6-12.86C131,10.88,116.74-1.06,102.3.07S75.7,15.27,76.53,29.83C71.73,21.29,60,17.52,51.2,21.64a18,18,0,0,0-2.59,1.51,19.27,19.27,0,0,0-5,5.26C32.51,25.14,14.06,28,9,43.5a22.85,22.85,0,0,0-1.09,8.94,18.82,18.82,0,0,0,.56,3.37A8.47,8.47,0,0,0,1.4,60.2a13.64,13.64,0,0,0-.89,9.86A21.08,21.08,0,0,0,12.1,84a21,21,0,0,0,18.08-.53C34.49,91,42.81,95.79,51.44,96.87s17.45-1.32,25-5.62C72.14,103.32,84.21,112.8,89.2,115c15.73,6.94,38.37,2.61,49.5-14.38,0,0,5.79,7.73,15,6,6.86-1.29,9.72-5.57,10.89-8.54a30.91,30.91,0,0,0,26.38,9.49c12.42-1.25,19.25-7,22.91-13.76,4.37,1.86,8.52,2.1,11.3,1.25,12.6-3.85,11.93-13.83,10.4-16.27a8.63,8.63,0,0,0,4.57.55c2.19-.3,4.87-1.51,7.68-4.62l1.1.4a43.93,43.93,0,0,0,18.48,2.48c10.63-.92,18.85-5.79,24.32-9.51,7.13-.39,13.73-.79,20.3-1.65,1.66-.21,3.33-.46,5-.75a113.74,113.74,0,0,0,20.14-5.28c1.19-.42,2.38-.86,3.58-1.34C343.75,57.9,343.79,56.4,341.79,55Z"/><path class="cls-2" d="M340.7,59.09c-1.2.48-2.39.92-3.58,1.34A113.74,113.74,0,0,1,317,65.71c-1.67.29-3.34.54-5,.75-6.57.86-13.17,1.26-20.3,1.65-5.47,3.72-13.69,8.59-24.32,9.51a43.93,43.93,0,0,1-18.48-2.48l-1.1-.4c-2.81,3.11-5.49,4.32-7.68,4.62a18.52,18.52,0,0,1,.79-9.42l.06-.18a12.57,12.57,0,0,1,3-4.73,11.93,11.93,0,0,1,10.53-2.54,22.21,22.21,0,0,1,9.8,5.28,27.72,27.72,0,0,1,27-8.65,22.2,22.2,0,0,0,4.93,1,16.76,16.76,0,0,0,4.47-.81c11.65-3.17,27.77-6.18,41.09-4.3C343.79,56.4,343.75,57.9,340.7,59.09Z"/><path class="cls-2" d="M240.89,69.94A9.21,9.21,0,0,0,236,71.47a22.94,22.94,0,0,0-17.66-.87,14.34,14.34,0,0,1,15.63-9.29c-6.27-3.62-16.11-3.71-21.48,1.11a30.38,30.38,0,0,0-3.93,5.19s-6.24-8.86-15.29-10.2c-5.43-.8-14.1,1.67-18.33,8.4-4.7-15.42-25.22-20.53-37.79-9,8.24-2.87,17.18-2.41,19.33,6.11-7.13-3.69-17.07.7-19.19,8.48-.57-4-6.14-6.13-9.18-3.57a5.65,5.65,0,0,0-1.55,5.73C113.4,64.28,94.6,69.28,88.93,76c2.43-8.06,10.41-11.49,19.46-11.1-9.91-7.78-24.42-10-34.87-3.11,4.2-5.72,1.63-15-4.69-18.23S54,43.18,50.41,49.3s-2.35,14.56,2.46,19.83a43.27,43.27,0,0,0-15.43,2.35c4.41,2.85,5,9.65,5,9.65-7.66-9.58-19.29-9-19.29-9s3-2.69,9.79-2a22.69,22.69,0,0,0-6-9.48c-4.74-4.68-11.69-5-18.47-4.85A8.47,8.47,0,0,0,1.4,60.2a13.64,13.64,0,0,0-.89,9.86A21.08,21.08,0,0,0,12.1,84a21,21,0,0,0,18.08-.53C34.49,91,42.81,95.79,51.44,96.87s17.45-1.32,25-5.62C72.14,103.32,84.21,112.8,89.2,115c15.73,6.94,38.37,2.61,49.5-14.38,0,0,5.79,7.73,15,6,6.86-1.29,9.72-5.57,10.89-8.54a30.91,30.91,0,0,0,26.38,9.49c12.42-1.25,19.25-7,22.91-13.76,4.37,1.86,8.52,2.1,11.3,1.25,12.6-3.85,11.93-13.83,10.4-16.27a8.63,8.63,0,0,0,4.57.55c2.19-.3,4.87-1.51,7.68-4.62l1.1.4a43.93,43.93,0,0,0,18.48,2.48C257.28,73.13,247.45,69.52,240.89,69.94Z"/></g></g></svg>