<svg xmlns="http://www.w3.org/2000/svg" viewBox="0 0 326.15 118.74"><defs><style>.cls-1{fill:#fff;}.cls-2{fill:#cce1f4;}</style></defs><g id="Layer_2" data-name="Layer 2"><g id="OBJECTS"><path class="cls-1" d="M22.29,69.8a128.29,128.29,0,0,0,19.79,3.07c.19,3,1.39,6,5,7.59A18.08,18.08,0,0,0,53.27,82c1.1,8.64,5.55,17.75,19.45,17.57,11.18-.14,18.51-4,23.27-8.46a14.33,14.33,0,0,0,6.18,4,14.75,14.75,0,0,0,9.45-.08c.06.55.13,1.08.24,1.62,2.4,11.13,10.88,21.81,30.24,17.28a22.06,22.06,0,0,0,15-11.12c3.42,5,9.35,9.3,19.38,11a26.78,26.78,0,0,0,22.85-6.35,13.35,13.35,0,0,0,25.08,4c21.73,9.39,37.8-9.17,37.07-18,2.67,3.3,11.7,3.49,16.9,1.08a12,12,0,0,0,4.1-3.19A30.46,30.46,0,0,0,326.07,66a30,30,0,0,0-.84-9.51A30.44,30.44,0,0,0,284.4,35.65c-2.88-4.75-9-11.69-20.95-13.83a25.85,25.85,0,0,0-4.31-.4A28.9,28.9,0,0,0,204,19.11a16.91,16.91,0,0,0-6-2,15.47,15.47,0,0,0-5.68.18,15.45,15.45,0,0,0-8.46-6.79,15.81,15.81,0,0,0-14.46,3.16,20.69,20.69,0,0,0-39.16,1.8c-8.7-3.6-15.41-.24-19.3,3.51-5,4.79-7.55,14.74-5.37,21.21-6.25-1.74-11.25,2.22-10.13,8.62-14-8.24-27.39-1.43-34.66,4.08l-.32-.42c-7-6-16.21-2.33-17.56,2.47C29,49.35,15.17,51.74.87,60l-.24.17C-2.92,62.71,9,66.73,22.29,69.8Z"/><path class="cls-2" d="M22.29,69.8a128.29,128.29,0,0,0,19.79,3.07c.19,3,1.39,6,5,7.59A18.08,18.08,0,0,0,53.27,82c1.1,8.64,5.55,17.75,19.45,17.57,11.18-.14,18.51-4,23.27-8.46a14.33,14.33,0,0,0,6.18,4,14.75,14.75,0,0,0,9.45-.08c.06.55.13,1.08.24,1.62,2.4,11.13,10.88,21.81,30.24,17.28a22.06,22.06,0,0,0,15-11.12c3.42,5,9.35,9.3,19.38,11a26.78,26.78,0,0,0,22.85-6.35,13.35,13.35,0,0,0,25.08,4c21.73,9.39,37.8-9.17,37.07-18,2.67,3.3,11.7,3.49,16.9,1.08a12,12,0,0,0,4.1-3.19A30.46,30.46,0,0,0,326.07,66a30,30,0,0,0-.84-9.51c-10.1-2.58-21.41-2-28.32,12-4.85-9.45-13.67-8.36-16.08-1.85-4-6.56-11.22-11.54-21.05-14-10-2.55-17.49,2.21-22.55,7l.39.13c17.79,6.32,16.24,23.82,16.24,23.82s-6.59-17.5-42-19.68c0,0,5.34-7,17-6.08A25.3,25.3,0,0,0,200,47.51a22.45,22.45,0,0,0-.41-2.93c-1.28-5.95-5.86-11.63-11.92-12.14-10.16-.86-19,8.74-17.93,21.4,0,0-11.64-3.48-19.31,14.65,0,0,1.7-13.3,10.21-20.76-4.78-4.47-13.11-4.42-16.2-3.33-7.17,2.51-9.57,7.78-10,13,0,0-6.13-4.29-11.29-1.85-6.48,3.06-4.51,9.83-4.51,9.83-9.16-2.61-13-4.2-18.08,7.84,9.25-2.91,18.73.45,24.87,8.19A29.85,29.85,0,0,0,94,80.56c1.13-8.47-10.41-15.41-17.36-10.46C75.51,62.47,67,57.74,59.41,59.17,53.3,60.35,49.48,65.87,50,72.7c-4.45-11.21-16.52-8.37-32.43-9.58-5.36-.41-12-.22-16.93-2.91C-2.92,62.71,9,66.73,22.29,69.8Z"/></g></g></svg>