<svg xmlns="http://www.w3.org/2000/svg" viewBox="0 0 445.05 128.59"><defs><style>.cls-1{fill:#fff;}.cls-2{fill:#cce1f4;}</style></defs><g id="Layer_2" data-name="Layer 2"><g id="OBJECTS"><path class="cls-1" d="M440.65,47.92c-4.31-5.92-11-8.86-17.4-9.75a13.77,13.77,0,0,0,.33-3A14.14,14.14,0,0,0,401,23.79C395.83,9.14,383.35,0,366.75,0c-16.13,0-30.91,7.2-35,22.68-6.36-5-14.12-3.31-16.45,4.11.4-7.89-8.35-19.24-23.67-19.24-7.89,0-18.18,3.52-21.23,14.1-3-6.76-8.26-8.27-14.52-7.69s-11.15,7.94-11.2,13.22c-6.25-3.66-13.22-6.53-20.47-6.55S211,22.73,206,28c-5.36,5.69-5.54,15-2.71,22.22-7.17-1.62-12.62,3.13-11,10.31-8.57-4-13.83-4.13-23.05-2.1a29.69,29.69,0,0,0-15.95,9.41c-2.93-4.26-9.21-10.46-20.76-10-13.92.58-21,12.33-21,12.33S106.93,64.14,95.3,66c-9.06,1.48-10.9,8.6-10.9,8.6s-8.54-18.82-40.23-4.39C18.45,82,4.72,64.46,0,82.56H0c.44.18,14.72,5.84,43.67,9.59a111.48,111.48,0,0,0,30.71-.47h.07s4.8,4,14.66,6.48c7.1,1.75,13.56,1.58,20.6-2.5,2.71,6.75,8.65,12.15,16.73,12.64,4.34.26,9-1.66,12.25-3.49a37.43,37.43,0,0,0,4.65-3c7.44,3.49,14.75,10.07,22.79,9.68.33,0,.66,0,1-.07,10.23-1.24,20.23-8.16,22.71-18.17,10.54,7.63,28.71,1.55,32.28-3.1-1.27,5.55,1.27,11.51,5.47,15.35s9.83,5.78,15.46,6.59a47.14,47.14,0,0,0,37.56-11.34,22.44,22.44,0,0,0,19,4.29c2.06-.49,6.14-1.85,6.14-1.85s2.05,17,28.2,24c27,7.2,49.89-15,48.56-25.15,3.2,3.58,13.43,3.31,19.19.31,6.54-3.4,9.61-12.75,7.68-19,2.59,8.37,25.84,5.57,31.5-4.53a33.8,33.8,0,0,0,4.15-15A25.32,25.32,0,0,0,440.65,47.92Z"/><path class="cls-2" d="M425.48,44.15c-14.71-2.89-25.75,5.22-28.1,16.5-.4-3.11-4.58-4.5-7.46-3.24s-4.66,4.14-6.18,6.88c1.19-13.68-13.7-26.16-27-22.6-12.34,3.3-27.33,15-25.83,35.84,10-8,26.57-5.44,33.74,5.13-10.49-8-27.56-5-34.64,6.18-1.41-9.44-15-14.22-22-7.71,2.67-3.53,5.44-7.29,5.87-11.68S311.35,60,306.94,60c.56-5.18,1.11-10.55-.51-15.51s-6-9.4-11.24-9.29c-8.75.16-12.29,11.18-13.39,19.85-8.39-.79-16.67,6.35-17.14,14.76-5.54-6-2.58-17.33,5.17-19.81-3.95-4.13-11.51-2.61-14.91,1.95s-3.38,11-1.68,16.39c-8.48-7-22.66-5.35-29.31,3.41a36.62,36.62,0,0,1,22.49,10.72,25.6,25.6,0,0,0-26.82,2.1c.2-7.33-10.25-12.21-15.74-7.37-1.64-6.41-9.56-10.34-15.66-7.79s-8.84,11-5.39,16.64a26.7,26.7,0,0,0-27.06-4.85,18.71,18.71,0,0,1,16.56,9.47A39.31,39.31,0,0,0,145.75,87a33.05,33.05,0,0,0-17.91-7.77C109.37,77,100.89,89.34,100.89,89.34s-3.07-5.89,3.48-10.23c0,0-15.2-2.33-25.48,6.78,0,0-8.62-8.91-28.7-.54C42.36,88.61,0,82.56,0,82.56H0c.44.18,14.72,5.84,43.67,9.59a111.48,111.48,0,0,0,30.71-.47h.07s4.8,4,14.66,6.48c7.1,1.75,13.56,1.58,20.6-2.5,2.71,6.75,8.65,12.15,16.73,12.64,4.34.26,9-1.66,12.25-3.49a37.43,37.43,0,0,0,4.65-3c7.44,3.49,14.75,10.07,22.79,9.68.33,0,.66,0,1-.07,10.23-1.24,20.23-8.16,22.71-18.17,10.54,7.63,28.71,1.55,32.28-3.1-1.27,5.55,1.27,11.51,5.47,15.35s9.83,5.78,15.46,6.59a47.14,47.14,0,0,0,37.56-11.34,22.44,22.44,0,0,0,19,4.29c2.06-.49,6.14-1.85,6.14-1.85s2.05,17,28.2,24c27,7.2,49.89-15,48.56-25.15,3.2,3.58,13.43,3.31,19.19.31,6.54-3.4,9.61-12.75,7.68-19,2.59,8.37,25.84,5.57,31.5-4.53a33.8,33.8,0,0,0,4.15-15C442.19,52.85,435.23,46.06,425.48,44.15Z"/></g></g></svg>