<svg xmlns="http://www.w3.org/2000/svg" viewBox="0 0 150.3 60.14"><defs><style>.cls-1{isolation:isolate;}.cls-2{fill:#b2987d;opacity:0.28;}.cls-2,.cls-5{mix-blend-mode:multiply;}.cls-3{fill:#fffff4;}.cls-4{fill:#3ea7ba;}.cls-5{fill:#449daf;opacity:0.29;}</style></defs><g class="cls-1"><g id="Layer_2" data-name="Layer 2"><g id="OBJECTS"><path class="cls-2" d="M62.64,26.65c-.41,4-3.62,7.16-7.28,8.71s-7.71,1.75-11.68,1.94l-31.4,1.45A17.81,17.81,0,0,0,6,39.8,6,6,0,0,0,2.2,44.49c-.27,3.14,2.71,5.53,5.48,7,17.66,9.63,38.9,9,59,8.15,14.44-.62,28.94-1.24,43.18-3.77s28.3-7,40.44-14.89c-9-5.76-20.39-5.09-31-5.21S96.64,33.88,90.37,25.28Z"/><path class="cls-3" d="M60.46,22.76c-.4,3.95-3.62,7.15-7.28,8.71s-7.71,1.75-11.68,1.94L10.1,34.86a17.81,17.81,0,0,0-6.25,1A6,6,0,0,0,0,40.6c-.27,3.14,2.71,5.53,5.48,7,17.66,9.63,38.9,9,59,8.16C79,55.18,93.44,54.55,107.68,52s28.3-7,40.44-14.89c-9-5.76-20.39-5.1-31-5.21S94.47,30,88.19,21.39Z"/><path class="cls-4" d="M50,53.6c-13.41,0-27.75-1.19-40-6.8-3.76-1.73-5.63-3.81-5.41-6,.17-1.69,1.71-3.29,3.93-4.1a20.33,20.33,0,0,1,6-.86L43.76,34.7c3.6-.14,7.32-.28,10.66-1.48,3.57-1.27,6.09-3.79,6.41-6.4l.06-.43,26.63-1.11.19.22c4.59,5.29,13.23,7.93,26.41,8h3.25c9,0,18.37,0,25.95,4.14l.78.43-.78.42c-10.21,5.56-22.94,9.51-37.85,11.73-13.3,2-27,2.49-40.26,3C60.4,53.42,55.26,53.6,50,53.6ZM62,27.35c-.66,3.38-4,5.72-7.07,6.8-3.54,1.27-7.54,1.42-11.08,1.56L14.59,36.85a18.58,18.58,0,0,0-5.6.78c-1.81.66-3.07,1.93-3.21,3.25-.22,2.24,2.49,4,4.8,5,16.75,7.7,37.73,6.94,54.58,6.33,13.21-.48,26.88-1,40.1-3,14.36-2.15,26.67-5.9,36.6-11.15-7.14-3.53-16-3.55-24.5-3.57l-3.25,0c-13.41-.12-22.3-2.82-27.17-8.24Z"/><path class="cls-3" d="M97.43,24.11c-.56-2.3-1.13-4.59-1.69-6.89-1.12-4.59-2.39-9.46-5.62-12.58a15.28,15.28,0,0,0-5.61-3.29C76.43-1.56,66.66.16,61,7.2c-4.38,5.43-5.64,12.7-6.86,20C68.06,32.93,84.33,31,97.43,24.11Z"/><path class="cls-4" d="M54.13,27.22A104.73,104.73,0,0,1,52,37.77c4.94,5,12.91,6.58,19.52,5.67,9.59-1.32,20.11-2.51,29-6.83q-1.53-6.26-3-12.5C84.33,31,68.06,32.93,54.13,27.22Z"/><path class="cls-5" d="M110.66,32.84A16.49,16.49,0,0,1,108,31.31a43.32,43.32,0,0,1-7.92-1.76l-1.87-2.08Q97,22.34,95.74,17.22c-1.12-4.59-2.39-9.46-5.62-12.58a12.61,12.61,0,0,0-2.51-1.87C82.53,2.52,78,4.2,78,7.1c0,10.3-5.15,27,5.15,33.47,7.69,5.13,21,9.68,30.67,6.52,6-2,6.35-10.53.39-12.78C113,33.87,111.86,33.38,110.66,32.84Z"/></g></g></g></svg>