<svg xmlns="http://www.w3.org/2000/svg" xmlns:xlink="http://www.w3.org/1999/xlink" viewBox="0 0 502.51 615.05"><defs><style>.cls-1{fill:none;}.cls-2{clip-path:url(#clip-path);}.cls-3{fill:#4d314a;}.cls-4{fill:#2e1d2c;}</style><clipPath id="clip-path" transform="translate(-436.69 32.92)"><rect class="cls-1" width="750" height="500.12"/></clipPath></defs><g id="Layer_2" data-name="Layer 2"><g id="OBJECTS"><g class="cls-2"><path class="cls-3" d="M851.49,276.27c-12,4-24.92,4.12-37.38,2.34-12.84-1.84-25.26-5.65-37.64-9.41-12.55-3.81-25.19-7.6-38.25-9.18a110.68,110.68,0,0,0-73.55,17.26q-2,1.31-3.91,2.69a1.25,1.25,0,0,0,1.45,2,107.76,107.76,0,0,1,34.46-16.43,106.65,106.65,0,0,1,38-3.43c13,1.21,25.7,4.79,38.19,8.56s24.72,7.69,37.49,9.85c12.4,2.09,25.25,2.52,37.52-.62,1.51-.39,3-.83,4.47-1.32S853,275.76,851.49,276.27Z" transform="translate(-436.69 32.92)"/><path class="cls-3" d="M664,278.2a14.55,14.55,0,0,0-10.18,7.35,54.57,54.57,0,0,0-2.6,6.83,11.89,11.89,0,0,1-4.11,5.92c4.58-.45,9.24-3.86,11.95-7.57S663,282.68,664,278.2Z" transform="translate(-436.69 32.92)"/><path class="cls-3" d="M680.33,269.72a25.78,25.78,0,0,0-14,13.82c-1.48,3.51-2.13,7.23-3.17,10.86s-2.61,7.34-5.41,9.93c6.52-2,12.93-8.38,16.51-14.66S679.23,276.64,680.33,269.72Z" transform="translate(-436.69 32.92)"/><path class="cls-3" d="M706.61,260.9c-8.15,3.46-15.46,10.85-19.24,19.46-2.13,4.85-3.16,9.94-4.72,14.93s-3.81,10.11-7.65,13.78c8.76-3,17.57-12,22.62-20.74S704.82,270.37,706.61,260.9Z" transform="translate(-436.69 32.92)"/><path class="cls-3" d="M733.83,260.09c-8.77,4.34-16.93,12.93-21.47,22.62-2.56,5.46-4,11.1-6,16.67s-4.67,11.33-8.94,15.61c9.38-3.9,19.22-14.35,25.1-24.24S731.32,270.59,733.83,260.09Z" transform="translate(-436.69 32.92)"/><path class="cls-3" d="M755.32,263.8c-8.78,4.34-16.94,12.93-21.48,22.62-2.56,5.46-4,11.1-6,16.67s-4.68,11.34-8.95,15.61c9.38-3.9,19.22-14.35,25.1-24.24S752.8,274.3,755.32,263.8Z" transform="translate(-436.69 32.92)"/><path class="cls-3" d="M776.93,270.26c-8.78,4.34-16.94,12.93-21.48,22.62-2.56,5.46-4,11.11-6,16.68s-4.68,11.33-9,15.6c9.38-3.89,19.22-14.35,25.1-24.24S774.41,280.76,776.93,270.26Z" transform="translate(-436.69 32.92)"/><path class="cls-3" d="M799.52,275.59a24,24,0,0,0-15.71,14.48c-1.46,3.9-1.87,8.11-2.78,12.18s-2.44,8.19-5.6,10.89c7.77-1.63,15-8.34,18.7-15.2S798.88,283.45,799.52,275.59Z" transform="translate(-436.69 32.92)"/><path class="cls-3" d="M822.77,280.44a19.33,19.33,0,0,0-13.06,11.87c-1.18,3.23-1.46,6.74-2.17,10.13s-1.95,6.79-4.58,9c6.54-1.25,12.51-6.75,15.57-12.42S822.34,287,822.77,280.44Z" transform="translate(-436.69 32.92)"/><path class="cls-3" d="M607.9,579.69c-11.82-4.61-21.8-12.78-30.23-22.11-8.7-9.63-15.81-20.5-22.92-31.31s-14.5-22-23.53-31.52A110.68,110.68,0,0,0,463.64,461c-1.57-.18-3.15-.32-4.73-.43a1.24,1.24,0,0,0-.18,2.48,108.12,108.12,0,0,1,68.41,31.08c9.25,9.27,16.7,20.12,23.89,31s14.08,21.72,22.52,31.55c8.19,9.54,17.79,18.09,29.24,23.52,1.4.67,2.83,1.28,4.27,1.84S609.4,580.27,607.9,579.69Z" transform="translate(-436.69 32.92)"/><path class="cls-3" d="M462.52,461.24a14.55,14.55,0,0,0-12.53-.86,53.93,53.93,0,0,0-6.36,3.59,11.83,11.83,0,0,1-6.94,1.92c3.8,2.58,9.56,2.95,14,1.82S458.87,464,462.52,461.24Z" transform="translate(-436.69 32.92)"/><path class="cls-3" d="M480.51,465.18a25.85,25.85,0,0,0-19.6,1.66c-3.38,1.76-6.26,4.21-9.38,6.33s-6.7,4-10.51,4.18c6.29,2.64,15.3,1.82,22.07-.72S475.24,469.8,480.51,465.18Z" transform="translate(-436.69 32.92)"/><path class="cls-3" d="M506.36,475.21c-8.48-2.56-18.82-1.55-27.24,2.65-4.74,2.37-8.79,5.63-13.17,8.46s-9.4,5.34-14.7,5.7c8.67,3.28,21.19,2,30.65-1.47S498.93,481.35,506.36,475.21Z" transform="translate(-436.69 32.92)"/><path class="cls-3" d="M527.8,492c-9.52-2.28-21.28-.89-31,3.65-5.46,2.56-10.17,6-15.24,9s-10.85,5.72-16.86,6.27c9.7,3,23.95,1.26,34.79-2.58S519.16,498.46,527.8,492Z" transform="translate(-436.69 32.92)"/><path class="cls-3" d="M542,508.59c-9.53-2.28-21.29-.89-31,3.65-5.46,2.56-10.17,6-15.24,9s-10.85,5.72-16.86,6.28c9.7,3,23.95,1.26,34.8-2.58S533.3,515.05,542,508.59Z" transform="translate(-436.69 32.92)"/><path class="cls-3" d="M554.42,527.38c-9.52-2.28-21.28-.89-31,3.65-5.46,2.56-10.16,6-15.23,9s-10.85,5.72-16.86,6.28c9.7,3,23.95,1.26,34.79-2.58S545.77,533.84,554.42,527.38Z" transform="translate(-436.69 32.92)"/><path class="cls-3" d="M568.39,545.92A24.08,24.08,0,0,0,547,547c-3.61,2.06-6.62,5-9.92,7.59s-7.11,4.72-11.27,4.78c7,3.72,16.83,3.16,24.1.27S562.86,551.55,568.39,545.92Z" transform="translate(-436.69 32.92)"/><path class="cls-3" d="M583.15,564.53a19.33,19.33,0,0,0-17.63.76c-3,1.74-5.43,4.25-8.14,6.4s-5.85,4-9.28,4c5.82,3.22,13.93,2.82,19.91.41S578.63,569.28,583.15,564.53Z" transform="translate(-436.69 32.92)"/><path class="cls-3" d="M692.43,465.47c-1.75-4.59-3.87-9.43-6.86-12.8-8.84-9.95-20-18.4-34.07-15.2a2.12,2.12,0,0,0-1.28.54c1.85,2.5,19.37,16.23,11.29,19.15-3.78,1.36-7.34-11.57-13.17-16.25a6,6,0,0,0-.5-.38l-.17-.11-.41-.26-.17-.1c-.19-.11-.38-.2-.57-.29-7.51-3.34-27.11-2.75-32.39,4.66-1.16,1.63,26.81,16.15,14.28,24.35-4.52,3-8.32-10.6-9.51-13-3.69-7.55-9-11.21-17.29-9.78-9,1.54-17.57,4.1-24.19,10.74,6.37,1.24,19.14,1.16,21.73,8.79,3.64,10.75-15.15-2.22-17.14-3.35a15.28,15.28,0,0,0-4.12-2.07c-.29-.09-.58-.16-.86-.22l-.13,0a9.41,9.41,0,0,0-1-.14c-5.45-.44-10.11,5.09-14,8.32-6.89,5.78-13.56,12-19.86,18.42l-.21.22-.22.22-.21.22-.21.22-.2.21-.2.21-.2.22-.17.19-.19.21-.17.19a1.63,1.63,0,0,0-.17.2l-.16.18c-.06.06-.11.13-.17.2l-.14.16c0,.07-.11.13-.16.19s-.09.11-.13.16l-.14.19-.12.15-.13.18-.11.13-.11.17a.77.77,0,0,0-.09.13l-.11.16-.08.12-.09.15-.06.11c0,.05-.05.1-.07.14a.93.93,0,0,0,0,.1l-.06.13,0,.09a.56.56,0,0,0,0,.12.24.24,0,0,0,0,.08.44.44,0,0,0,0,.1.22.22,0,0,0,0,.08v.12a.48.48,0,0,0,.07.2c4.64,3.09,22.21,6.06,26.53,5.1,3.65-.74,15.52-2.54,18.79-3.95a86,86,0,0,1,10.73-6.84c4-.33,8.45-.68,12.91-1a59.92,59.92,0,0,1,18.61-3.5,26,26,0,0,1,10.59,1.6c2.6,0,7.07,3.62,10.33,6.63q.72.48,1.47.93c3.42.66,6.46-1.24,9.69-2.72l.21-.09c3.17-2.3,17.07,17.85,20.82,16.45,6.26-2.34,19.39,3.83,26,4.15C704.66,504.13,691.46,465.3,692.43,465.47Z" transform="translate(-436.69 32.92)"/><path class="cls-3" d="M689.06,487c-.56.16-1.13.3-1.69.42,1.61.51,2.82.7,3.12.29A3,3,0,0,1,689.06,487Z" transform="translate(-436.69 32.92)"/><path class="cls-4" d="M720.79,493c.1-2.37.12-4.76.05-7.13a2.77,2.77,0,0,0-.61-2c-3.1-2.88-11.89,4.06-14.31,5.69-5.66,3.83-11.09,8.1-18.37,7.85a2.72,2.72,0,0,1-2.48-1.1c-.61-1.22.63-2.52,1.75-3.28a62.24,62.24,0,0,1,23.32-9.7,4.73,4.73,0,0,0,2.25-.84c1.13-1,1-2.76.52-4.16-1.24-3.47-4.16-6.07-7.29-8-8.15-5-17.9-6.33-27.31-6.29-8.35,0-18.41,0-22.63,8.69-2.35,4.82-2,10.86-5.25,15.09-.63.81-1.6,1.59-2.58,1.29s-1.38-1.55-1.48-2.61a17.26,17.26,0,0,1,6.12-14.64,2.59,2.59,0,0,0,1-1.12c.43-1.34-1.45-2.19-2.85-2.21a35.47,35.47,0,0,0-8.6,1.31c-20.41,4.86-41.54,10.06-58,23.09,12.43-2.7,25.15-5.43,37.77-3.82,9.87,1.26,19.21,5.12,28.26,9.25,12,5.48,24,11.61,33.63,20.6a13.72,13.72,0,0,0,3.3,2.54,11.77,11.77,0,0,0,3.86.85,75.8,75.8,0,0,0,10.55.26c5-.21,10.42-1.14,13.73-4.88,2.2-2.5,3.09-5.86,3.76-9.11A99.14,99.14,0,0,0,720.79,493Z" transform="translate(-436.69 32.92)"/><path class="cls-3" d="M752.32,477.52c1.82-4,3.57-8.44,3.83-12.49.77-11.94-.92-24.44-11.85-31.39a1.9,1.9,0,0,0-1.15-.47c-.43,2.76,1.89,22.65-5.1,19.33-3.26-1.55,2.75-12,2.06-18.7,0-.19-.05-.38-.08-.56l0-.18q0-.22-.09-.42c0-.06,0-.12,0-.18s-.11-.37-.18-.55c-2.62-6.91-15.4-19.06-23.47-17.75-1.78.29,6.64,27.36-6.52,24.54-4.76-1,1.5-12,2.3-14.32,2.49-7.14,1.48-12.84-4.69-17.24-6.65-4.76-13.74-8.63-22.17-8.66,3.24,4.85,11.37,13,8.13,19.44-4.57,9.13-8.17-11.08-8.71-13.07a13.61,13.61,0,0,0-1.28-3.94,6.72,6.72,0,0,0-.4-.7.47.47,0,0,1-.06-.09,8.69,8.69,0,0,0-.57-.75c-3.17-3.76-9.65-3.24-14.15-3.66-8.06-.74-16.24-1.08-24.34-1h-2.84l-.21,0-.24,0h-.19l-.23,0-.18,0-.21,0-.17,0-.2,0-.15,0-.18,0-.14,0-.17,0-.13,0-.15,0-.11,0-.14,0-.09,0-.12.05-.08,0-.1.05-.06,0-.08.05-.05,0-.06.06,0,0a.38.38,0,0,0-.08.17c1,4.92,10.17,18,13.53,20.18,2.77,1.87,11.44,8.32,14.41,9.51a77.44,77.44,0,0,1,11.16,2.53c2.78,2.37,5.79,5,8.82,7.62a53.63,53.63,0,0,1,14,9.67A23.49,23.49,0,0,1,705,453c1.66,1.65,2.17,6.81,2.31,10.8q.15.76.33,1.53c1.74,2.6,4.88,3.34,7.87,4.47l.19.07c3.48.57-.6,22.21,2.67,23.72,5.45,2.52,9.81,14.82,13.79,19.23C735.35,509.8,751.81,476.79,752.32,477.52Z" transform="translate(-436.69 32.92)"/><path class="cls-3" d="M736.4,489c-.46-.25-.91-.53-1.34-.81.7,1.35,1.33,2.24,1.79,2.18A2.68,2.68,0,0,1,736.4,489Z" transform="translate(-436.69 32.92)"/><path class="cls-4" d="M752.7,513q2.37-2.16,4.59-4.49a2.45,2.45,0,0,0,.88-1.64c-.12-3.8-10.12-5-12.69-5.54-6-1.2-12.2-2-16.65-6.77a2.46,2.46,0,0,1-.86-2.29c.39-1.16,2-1.19,3.2-1a56.06,56.06,0,0,1,21,8.77,4.25,4.25,0,0,0,2,.91c1.33.1,2.41-1.1,3-2.31,1.43-3,1.24-6.49.49-9.72-1.93-8.4-7.28-15.44-13.26-21.43-5.31-5.31-11.64-11.77-19.87-9-4.57,1.56-8.19,5.63-13,6.2A2.36,2.36,0,0,1,709,464c-.45-.84.12-1.86.73-2.6A15.52,15.52,0,0,1,723,456a2.36,2.36,0,0,0,1.32-.09c1.12-.58.48-2.32-.4-3.23a31.62,31.62,0,0,0-6.27-4.66c-16-10-32.72-20.18-51.46-22.44,9.6,6.23,19.39,12.63,26.35,21.72,5.44,7.1,8.88,15.51,12,23.91,4.11,11.15,7.75,22.66,8.13,34.53a12.25,12.25,0,0,0,.46,3.72,10.3,10.3,0,0,0,1.9,3,68.57,68.57,0,0,0,6.51,6.91c3.29,3.06,7.32,5.94,11.81,5.68,3-.17,5.7-1.73,8.2-3.36A90.26,90.26,0,0,0,752.7,513Z" transform="translate(-436.69 32.92)"/><path class="cls-3" d="M768.86,352.24c-1.49-4.68-3.33-9.63-6.13-13.17-8.27-10.43-19-19.49-33.16-17.08a2.1,2.1,0,0,0-1.31.47c1.7,2.59,18.43,17.29,10.19,19.75-3.84,1.15-6.68-12-12.23-17l-.48-.4-.16-.13-.4-.28-.16-.11-.55-.32c-7.32-3.75-26.92-4.26-32.61,2.84-1.25,1.56,25.87,17.63,12.9,25.11-4.69,2.7-7.72-11.05-8.77-13.54-3.26-7.75-8.33-11.7-16.71-10.74-9,1-17.77,3.12-24.75,9.37,6.28,1.6,19,2.23,21.19,10,3,10.94-15-3.06-16.92-4.3a15.44,15.44,0,0,0-4-2.3c-.28-.11-.57-.19-.85-.27l-.12,0a9.13,9.13,0,0,0-1-.19c-5.42-.74-10.39,4.51-14.4,7.52-7.21,5.39-14.22,11.21-20.87,17.28l-.22.2-.24.22-.21.2-.23.21-.21.2c-.07.07-.14.13-.2.2l-.22.2-.18.18-.2.2-.18.18-.19.19-.16.17-.19.19-.14.16-.17.18-.14.15-.16.18-.12.14-.15.17-.1.14a1,1,0,0,0-.13.16l-.1.12-.12.16a.76.76,0,0,1-.08.11,1.3,1.3,0,0,1-.1.15l-.06.1-.09.14a.93.93,0,0,1,0,.1l-.06.12a.36.36,0,0,0,0,.09l-.05.11a.31.31,0,0,0,0,.08l0,.11s0,.05,0,.07,0,.06,0,.09a0,0,0,0,0,0,0,.46.46,0,0,0,0,.2c4.45,3.35,21.83,7.3,26.2,6.58,3.68-.52,15.64-1.66,19-2.88a86.07,86.07,0,0,1,11.09-6.23c4.06-.11,8.48-.2,12.95-.28a59.64,59.64,0,0,1,18.78-2.45,25.94,25.94,0,0,1,10.48,2.19c2.59.13,6.86,4,9.94,7.19.47.35.93.69,1.41,1,3.38.85,6.52-.88,9.83-2.18l.22-.08c3.29-2.12,16,18.79,19.86,17.6,6.38-2,19.14,4.91,25.71,5.6C778.9,391.53,767.9,352,768.86,352.24Z" transform="translate(-436.69 32.92)"/><path class="cls-3" d="M764.28,373.58q-.85.19-1.71.33c1.59.6,2.78.85,3.1.46A3,3,0,0,1,764.28,373.58Z" transform="translate(-436.69 32.92)"/><path class="cls-4" d="M795.63,381.27q.36-3.56.45-7.13a2.71,2.71,0,0,0-.49-2c-2.94-3.05-12.11,3.39-14.61,4.88-5.87,3.5-11.53,7.46-18.78,6.8a2.71,2.71,0,0,1-2.42-1.24c-.54-1.25.77-2.47,1.93-3.17A62.45,62.45,0,0,1,785.55,371a4.78,4.78,0,0,0,2.29-.71c1.18-.91,1.17-2.7.75-4.13-1.05-3.52-3.82-6.28-6.83-8.39-7.86-5.49-17.52-7.32-26.92-7.81-8.33-.43-18.38-1.05-23.08,7.4-2.61,4.69-2.56,10.74-6.09,14.78-.67.77-1.68,1.49-2.64,1.14s-1.3-1.62-1.33-2.69a17.23,17.23,0,0,1,6.93-14.27,2.69,2.69,0,0,0,1-1.07c.5-1.31-1.32-2.26-2.73-2.36a35.06,35.06,0,0,0-8.65.82c-20.65,3.71-42,7.72-59.19,19.81,12.56-2,25.42-4,37.92-1.7,9.79,1.81,18.89,6.19,27.71,10.82,11.68,6.14,23.27,12.93,32.42,22.45a13.8,13.8,0,0,0,3.15,2.72,11.58,11.58,0,0,0,3.8,1.07,77.18,77.18,0,0,0,10.52.85c5,.07,10.47-.55,14-4.11,2.34-2.36,3.42-5.67,4.27-8.88A98.16,98.16,0,0,0,795.63,381.27Z" transform="translate(-436.69 32.92)"/><path class="cls-4" d="M536.05,49.73a.26.26,0,0,0-.08.12A.83.83,0,0,0,536.05,49.73Z" transform="translate(-436.69 32.92)"/><path class="cls-4" d="M628,46.33s.09-1.09.27-2.8l-1.41,3.27Z" transform="translate(-436.69 32.92)"/><path class="cls-4" d="M583.3,74.88l.11-.1c0-.14-.06-.29-.1-.43C583.31,74.54,583.3,74.72,583.3,74.88Z" transform="translate(-436.69 32.92)"/><path class="cls-4" d="M810.17,55.66c-4-3.58-8.93-7.8-14.73-12.21-2.9-2.19-6-4.42-9.38-6.64s-6.88-4.64-10.64-6.9-7.81-4.47-11.83-6.57c-1.67-.87-3.39-1.73-5.13-2.57a31.66,31.66,0,0,0,1-3.64c.1-.84,1.41-5.48-1.75-12.78a39.63,39.63,0,0,0-5-8.29c-.27-.35-.53-.7-.82-1.06a54.53,54.53,0,0,0-4.39-4.71,122.68,122.68,0,0,1-1.31,25.14L745.16,15a70.22,70.22,0,0,0-1-17.17c.17-3.38.4-6.74.59-10.12-1.53-1.29-3.2-2.58-5.06-3.88-1.59-1.11-3.31-2.22-5.17-3.31s-3.86-2.17-6-3.22A85,85,0,0,1,738.12.92h0a112.21,112.21,0,0,1,.06,11.6l-2.62-.85c-.84-11.33-5.82-23.5-8.31-34.94-1.15-.54-2.33-1.07-3.56-1.59-.73-.31-1.47-.61-2.23-.91h0c-2.13-.84-4.38-1.65-6.75-2.4a70.7,70.7,0,0,1,3.48,10,17.38,17.38,0,0,1,.53,3.26c0,1.31.14,6.9-.66,7.67a.34.34,0,0,1-.18.09c-.14,0-.31-.11-.5-.4-.63-.92-.73-2.33-.88-4.21a28.13,28.13,0,0,0-2.12-9.53c.25,1.45.53,2.89.85,4.34-.32-1.45-.6-2.89-.85-4.34a28.46,28.46,0,0,0-1.84-3.58,46.24,46.24,0,0,0-3.4-4.87q-2.51-.66-5.17-1.24l-1.63-.32c-.89-.17-1.84-.33-2.83-.48a75.16,75.16,0,0,1,7,7.66c3.47,4.38,6.42,9.52,5.32,11.81a1.9,1.9,0,0,1-.79.85c-.34.19-4.93-4.69-10.24-9.69-2.73-2.58-5.63-5.21-8-7.29-1.32-1.15-2.48-2.14-3.37-2.88l-1.8-1.5c-.68,0-1.32,0-2,0h-1c-1.65,0-3.32.07-5,.17C686.41-20.4,694.57-8,701.05,4.72c-1.75-.17-3.51-.31-5.28-.43C688.15-7.92,683.3-20.55,676-32.48l-1.26.11c-2,.19-4,.44-5.95.7-1.23.16-2.47.32-3.69.5s-2.52.37-3.77.57a.42.42,0,0,0,.1.28c2.66,3,8.5,6.88,13.56,10.76a43.26,43.26,0,0,1,7.3,6.59c1.54,1.85,2.24,3.44,1.59,4.55a2.1,2.1,0,0,1-.65.69c-.31.22-2.58-2.2-6-5.45a100.51,100.51,0,0,0-8.64-7.47,60.24,60.24,0,0,0-7.81-5.13A32.74,32.74,0,0,0,656-27.95a16.82,16.82,0,0,0-4.19-.94,3.16,3.16,0,0,0-.32,0l-1.4.28q1.92,2.33,3.69,4.71c-1-.91-2.06-1.81-3.11-2.7-.44-.62-.89-1.24-1.34-1.85l-.68.14c-1.82.39-3.82.83-5.94,1.34-1,.24-2,.5-3.07.77l-1.15.3-2.68.72c-2.13.59-4.29,1.22-6.4,1.88l-.3.09c-1.76.56-3.48,1.12-5.13,1.69l-.15.05c-3.35,1.15-6.41,2.3-8.87,3.27-.11.21-.12.39.11.47,2.38.39,21.73,7.27,22.32,13.83a3.23,3.23,0,0,1-.8,2.6,4.12,4.12,0,0,1-.41.44c.11.09-10.9-14.37-28.11-13.52-.67,0-1.34.09-2,.17-1.23.62-2.61,1.32-4.08,2.08C613.13-9,624.52-3.47,621.25-3.39A178.59,178.59,0,0,0,599.81-11c-2.76,1.48-5.75,3.17-8.72,5l-1.47.89a172,172,0,0,1,44.53,16.84l-.68.21q-3.44-1.55-7.12-2.82C612.75,2.45,597,1.49,581.58,0c-1.64,1.11-3.19,2.18-4.59,3.18-1,.74-2,1.44-2.87,2.08L571.76,7c-.09,0,18.41-.79,24.07,1,1.61.41,2.28.86,1.37,1.33a19.09,19.09,0,0,1-2.6,1.05c-9.91,3.17-24.3-.52-31.22,3.56l-.34.36-.06.06-.84.92c-.79.86-1.59,1.73-2.39,2.64-1.81,2-3.65,4.18-5.48,6.4l-.24.28,1.23-.34c16.16-1,33.42-3.14,49.54-.23,1.36-.74,2.74-1.45,4.12-2.14-1.5.75-3,1.53-4.47,2.33l-1.73.95-.79.45c-1.5.85-3,1.74-4.46,2.65l1.45-.9,1.68-1c-16-1.57-33.55.53-50.13,2.65-2.83,3.62-5.56,7.33-8.07,11l-1.94,2.86-.85,1.28c-1.27,1.92-2.46,3.79-3.56,5.56,1.57-1.63,27-15.23,33.05-12.78.27.09-8.53,2.79-17.36,6.87A177.08,177.08,0,0,0,534.09,53c-.54.9-1.05,1.76-1.53,2.59l-.65,1.12c-.86,1.5-1.61,2.84-2.22,4-.07.43,0,.65.24.56,11.06-4.78,35.2-20,30.81-12.7-.86,1.21-19.69,6.78-30.75,17.73a39.91,39.91,0,0,0-3.11,3.33,26.06,26.06,0,0,0-2.55,3.62l-.21.39a20,20,0,0,0-1.74,5.24c-.18.91-.33,1.88-.45,2.88-.14,1.25-.25,2.55-.3,3.91q0,1.05,0,2.13c0,1.62.07,3.28.2,5a145.19,145.19,0,0,1,29.86-20.1c-1.54,2.34-3,4.66-4.37,6.93-.35.62-.68,1.24-1,1.87v-.22c-.14.22-.27.45-.4.67l.36-.61a171.36,171.36,0,0,0-24.15,14.41c.22,1.94.52,3.88.88,5.78h0c.22,1.18.47,2.35.73,3.48.47,2,1,3.93,1.58,5.72.34,1.09.7,2.13,1.06,3.1a44.37,44.37,0,0,0,2.31,5.22c1.15,2.14,2.25,3.56,3.15,4,0-.55,0-1.1,0-1.65v0c0,.56,0,1.12,0,1.67.86.4,1.53-.11,1.93-1.82a17.82,17.82,0,0,1,1.35-3.67c.35-.72.77-1.46,1.21-2.2a40.91,40.91,0,0,1,2.8-4.09l.23-.3c.36-.46.74-.92,1.12-1.37.54-.64,1.09-1.28,1.67-1.92.79-.88,1.62-1.75,2.47-2.6.64-.63,1.3-1.25,2-1.87l.38-.37c-.55-6.54-.55-13.33-.62-20,.39-.7.78-1.42,1.19-2.13,1.42,6,3.29,11.6,4.89,17.51l.48-.37c1.27-1,2.53-1.93,3.77-2.82l.53-.39q1-.7,1.92-1.35c1.43-1,2.78-1.89,4-2.71l.46-.3c1-.63,1.84-1.23,2.61-1.76,1.91-1.32,3.18-2.34,3.46-3.08a3,3,0,0,0,.12-.39c1-4.57-1.38-22-.07-23.59a1.35,1.35,0,0,1,.43-.41c1.23-.73,1.45,3.84,1.93,8.91.51,5.52,1.41,11.56,3.18,12.38,1-1,2-2,3.55-3.34l1.17-1,1.11-1a114.48,114.48,0,0,1,.45-13.75c.41-4.5,1-8.31,1.36-8.28,1.8.16.47,14.65.47,19.57,0,.14.06.29.1.43l.91-.75c1.06-.88,2.17-1.76,3.29-2.63,1.5-1.17,3-2.32,4.53-3.41l.85-.6c1.87-1.33,3.67-2.54,5.3-3.6l1.06-.68c.76-.49,1.48-.93,2.12-1.33a10,10,0,0,0,2.78-3.63,32.32,32.32,0,0,0,2.24-7.26c1.8-8.72,1.86-19.14,2.73-19.63a4.67,4.67,0,0,1,1.42-.55,2.22,2.22,0,0,1,.93,0c2,.53,2.33,4.5,1.83,9.17a66.85,66.85,0,0,1-1.35,7.75,51.1,51.1,0,0,1-2.14,7.16.32.32,0,0,0,0,.23l1.29-.73c1.06-.59,2.24-1.22,3.52-1.89.88-.45,1.8-.92,2.76-1.39-2.32-10.12,2-22,5.28-33.29,1.07-.42,2.14-.84,3.22-1.24l.32-.11c-1.79,9.33-3.43,18.49-3.22,27.5q-.73,2.59-1.45,5.17l1.68-.75c1.17-.52,2.35-1,3.53-1.5l1.41-3.27c.49-6.08,2.75-20,3.46-19.83a.68.68,0,0,1,.22.12c1.52,1-.18,7.82-1.41,14.45-.51,2.68-1,5.32-1.21,7.54.65-.25,1.29-.5,1.93-.73s1.14-.43,1.71-.63a116.47,116.47,0,0,1,4.68-13.11c-.73,4-1.28,8.05-1.61,12l.22-.07c1.06-.36,2.07-.68,3-1l.6-.19c1.59-.49,3-.89,4.13-1.2,1.62-3.38,3.38-6.73,5.15-10.06q-.46,3.2-.63,6.36A25.56,25.56,0,0,0,650.79,34C653.73,29,655,23.75,656,21.71a2.25,2.25,0,0,1,.16-.31,1.23,1.23,0,0,1,.44-.53c2-1-.07,10.73-3.3,17.06,0-.42-.16,0-.06.1v0a12.34,12.34,0,0,1-1.37,2.14l.22,0c1.71-.27,3.93-.58,6.37-.85,1.2-.14,2.44-.26,3.71-.37h.08c0-.06,0-.12,0-.19,3.07-4.3,6-8.77,8.71-13.33a87.22,87.22,0,0,0-2.39,13.12l1.86-.06.76,0c2.46-.06,4.58,0,6,0h.54a2.36,2.36,0,0,0,.56-.38c4.75-5,1.93-18.25,8.63-21,.13-.05.26-.11.4-.15,1.7-.52-1,10.66-2,16.89-.39,2.26-.58,3.86-.36,4l.52,0,1.29-.09c1.15-.08,2.35-.18,4-.19.76-4.33,4.16-16.6,4.51-16.57a1.46,1.46,0,0,1,.86.34c1.24,1.1.29,4.64-.9,8.25-1.09,3.26-2.37,6.57-2.63,8.11l2.62,0H696l1.86,0c2.4.06,4.92.16,7.49.28l3.75.18.15-.21c.37-.54.75-1.1,1.12-1.71A28.22,28.22,0,0,0,712.08,33a14.66,14.66,0,0,0,.82-5.79c0-4.81-1.07-10.17.59-10.7.68-.21,1.31.95,1.85,2.91a71,71,0,0,1,3.88-9.11h0a71,71,0,0,0-3.88,9.11c1.28,4.51,2,13.22,2.28,19.19l1.93.07,2.36.06c.75,0,1.5,0,2.22,0,1.29,0,2.54-.05,3.77-.1-.31-8.82-1.86-17.49-.83-26.41l.83.23c1.88,8.79,2.36,17.16,3.73,25.93l.77-.07c1.68-.17,3.3-.39,4.84-.67l0,0c1.17-.21,2.29-.48,3.38-.78-.39-7-.81-13.9-1.85-21,.85.29,1.7.6,2.54.91a156.85,156.85,0,0,1,4.39,18.25l.85-.4c0-2.16.17-4.29.36-6.4-.19,2.11-.34,4.24-.36,6.4a24.42,24.42,0,0,0,3.69-2.26h0c.57-.43,1.12-.89,1.65-1.37a22.93,22.93,0,0,0,2.34-2.48,23.76,23.76,0,0,0,3.08-5c1.74.83,3.46,1.68,5.14,2.55,4.21,2.17,8,4.28,11.78,6.53s7.21,4.53,10.5,6.82,6.47,4.46,9.37,6.66c5.8,4.42,10.69,8.65,14.67,12.21,7.91,7.24,12.18,12,12.2,12l1.44-2.63S818.16,62.94,810.17,55.66Z" transform="translate(-436.69 32.92)"/><path class="cls-4" d="M632.11,79.54c-.05.06-.08.1-.08.13Z" transform="translate(-436.69 32.92)"/><path class="cls-4" d="M724,76.15s.09-1.1.27-2.81l-1.41,3.27Z" transform="translate(-436.69 32.92)"/><path class="cls-4" d="M679.36,104.69l.11-.09c0-.15-.06-.29-.1-.44C679.37,104.35,679.36,104.53,679.36,104.69Z" transform="translate(-436.69 32.92)"/><path class="cls-4" d="M906.23,85.47c-4-3.58-8.93-7.8-14.73-12.2-2.9-2.2-6-4.43-9.38-6.65s-6.88-4.64-10.64-6.9-7.81-4.47-11.83-6.56c-1.67-.88-3.39-1.73-5.13-2.57a31.29,31.29,0,0,0,1-3.65c.1-.84,1.41-5.47-1.75-12.78a39.34,39.34,0,0,0-5-8.28c-.27-.35-.53-.71-.82-1.06a53.15,53.15,0,0,0-4.39-4.72,122.81,122.81,0,0,1-1.31,25.15l-1.07-.42a70.22,70.22,0,0,0-1.05-17.17c.17-3.37.4-6.74.59-10.11-1.53-1.29-3.2-2.59-5.06-3.89q-2.38-1.66-5.17-3.3t-6-3.23a85.09,85.09,0,0,1,9.66,23.6h0a112.41,112.41,0,0,1,.06,11.61l-2.62-.86c-.84-11.33-5.82-23.49-8.31-34.93C822.16,6,821,5.47,819.75,5l-2.22-.9,0,0c-2.13-.84-4.38-1.65-6.75-2.4a71.14,71.14,0,0,1,3.48,10,16.67,16.67,0,0,1,.53,3.27c0,1.3.14,6.9-.66,7.66a.28.28,0,0,1-.18.09c-.14,0-.31-.11-.5-.39-.63-.92-.73-2.33-.88-4.21a28.08,28.08,0,0,0-2.12-9.53c.25,1.44.53,2.89.85,4.34-.32-1.45-.6-2.9-.85-4.34a27.16,27.16,0,0,0-1.84-3.58A44.22,44.22,0,0,0,805.16,0c-1.67-.44-3.38-.86-5.17-1.24l-1.63-.33c-.89-.16-1.84-.33-2.83-.48a75.92,75.92,0,0,1,7,7.67C806,10,809,15.15,807.86,17.44a1.85,1.85,0,0,1-.79.85c-.34.19-4.93-4.69-10.24-9.68-2.73-2.59-5.63-5.21-8-7.3-1.32-1.15-2.48-2.13-3.37-2.88-1.12-.94-1.8-1.49-1.8-1.49-.68,0-1.32,0-2,0l-1,0c-1.65,0-3.32.06-5,.16,6.91,12.35,15.07,24.7,21.55,37.46q-2.62-.26-5.28-.42C784.21,21.89,779.36,9.27,772.1-2.67l-1.26.12c-2,.19-4,.43-6,.69l-3.69.5-3.77.57a.4.4,0,0,0,.1.28c2.66,3,8.5,6.89,13.56,10.76a43.69,43.69,0,0,1,7.3,6.59c1.54,1.85,2.24,3.44,1.59,4.55a2,2,0,0,1-.65.69c-.31.22-2.58-2.2-6-5.45a102.29,102.29,0,0,0-8.64-7.47A60.24,60.24,0,0,0,756.89,4a32.65,32.65,0,0,0-4.79-2.16,16.87,16.87,0,0,0-4.19-.95l-.32,0-1.4.29q1.92,2.31,3.69,4.71c-1-.91-2.06-1.82-3.11-2.71-.44-.62-.89-1.23-1.34-1.85l-.68.15c-1.82.38-3.82.82-5.94,1.33l-3.07.78-1.15.29-2.68.72c-2.13.59-4.29,1.23-6.4,1.89l-.3.09c-1.76.55-3.48,1.12-5.13,1.68l-.15.05c-3.35,1.15-6.41,2.3-8.87,3.27-.11.22-.12.39.11.47,2.38.4,21.73,7.28,22.32,13.83a3.25,3.25,0,0,1-.8,2.61,4.07,4.07,0,0,1-.41.43c.11.1-10.9-14.37-28.11-13.52-.67,0-1.34.09-2,.18-1.23.61-2.61,1.31-4.08,2.08,11.12,3.1,22.51,8.69,19.24,8.77a178.62,178.62,0,0,0-21.44-7.61c-2.76,1.49-5.75,3.17-8.72,4.95l-1.47.9A172,172,0,0,1,730.21,41.5l-.68.21c-2.29-1-4.66-2-7.12-2.81-13.6-6.64-29.37-7.59-44.77-9.08C676,30.93,674.45,32,673.05,33l-2.87,2.08-2.36,1.77c-.09,0,18.41-.79,24.07,1,1.61.4,2.28.85,1.37,1.32a17.89,17.89,0,0,1-2.6,1c-9.91,3.18-24.3-.51-31.22,3.56-.11.12-.23.24-.34.37l-.06.05-.84.92c-.79.86-1.59,1.74-2.39,2.65-1.81,2-3.65,4.18-5.48,6.39l-.24.29c.41-.13.82-.23,1.23-.35,16.16-1,33.42-3.14,49.54-.23,1.36-.73,2.74-1.44,4.12-2.14-1.5.76-3,1.53-4.47,2.34-.58.31-1.16.62-1.73.94l-.79.45c-1.5.86-3,1.75-4.46,2.65.48-.3,1-.6,1.45-.89s1.12-.67,1.68-1c-16-1.58-33.55.52-50.13,2.64-2.83,3.62-5.56,7.34-8.07,11-.66,1-1.31,1.91-1.94,2.86L635.67,74c-1.27,1.92-2.46,3.79-3.56,5.56,1.57-1.62,27-15.23,33-12.78.27.09-8.53,2.79-17.36,6.88a175.76,175.76,0,0,0-17.65,9.13c-.54.9-1,1.76-1.53,2.59L628,86.48c-.86,1.5-1.61,2.85-2.22,4-.07.42,0,.64.24.56,11.06-4.78,35.2-20,30.81-12.71-.86,1.22-19.69,6.78-30.75,17.74a38.32,38.32,0,0,0-3.11,3.32,26.67,26.67,0,0,0-2.55,3.62l-.21.39a20,20,0,0,0-1.74,5.24c-.18.91-.33,1.88-.45,2.88-.14,1.25-.25,2.56-.3,3.91q0,1,0,2.13c0,1.62.07,3.29.2,5a145.6,145.6,0,0,1,29.86-20.1c-1.54,2.34-3,4.66-4.37,6.93-.35.63-.68,1.25-1,1.87V111c-.14.22-.27.45-.4.67l.36-.61a172.31,172.31,0,0,0-24.15,14.41c.22,1.94.52,3.89.88,5.79h0c.22,1.18.47,2.34.73,3.48.47,2,1,3.92,1.58,5.72.34,1.08.7,2.12,1.06,3.1a44.91,44.91,0,0,0,2.31,5.21c1.15,2.15,2.25,3.57,3.15,4,0-.54,0-1.1,0-1.65v0c0,.56,0,1.12,0,1.67.86.4,1.53-.11,1.93-1.81a17.62,17.62,0,0,1,1.35-3.67c.35-.72.77-1.46,1.21-2.21a40.91,40.91,0,0,1,2.8-4.09l.23-.3,1.12-1.37c.54-.64,1.09-1.28,1.67-1.92.79-.87,1.62-1.74,2.47-2.6.64-.63,1.3-1.25,2-1.87l.38-.36c-.55-6.55-.55-13.34-.62-20,.39-.71.78-1.42,1.19-2.14,1.42,6,3.29,11.6,4.89,17.52l.48-.38c1.27-1,2.53-1.93,3.77-2.82l.53-.39,1.92-1.34c1.43-1,2.78-1.89,4-2.71l.46-.31c.95-.63,1.84-1.22,2.61-1.75,1.91-1.33,3.18-2.35,3.46-3.08a2.22,2.22,0,0,0,.12-.39c1-4.58-1.38-22-.07-23.6a1.3,1.3,0,0,1,.43-.4c1.23-.74,1.45,3.84,1.93,8.91.51,5.51,1.41,11.55,3.18,12.37,1-1,2-1.95,3.55-3.34l1.17-1c.34-.31.71-.64,1.11-1a114.38,114.38,0,0,1,.45-13.75c.41-4.51,1-8.31,1.36-8.29,1.8.16.47,14.65.47,19.57,0,.15.07.29.1.44l.91-.76c1.06-.87,2.17-1.76,3.29-2.63,1.5-1.17,3-2.32,4.53-3.4l.85-.61c1.87-1.32,3.67-2.54,5.3-3.59l1.06-.69,2.12-1.33A10,10,0,0,0,700.31,88a32.16,32.16,0,0,0,2.24-7.26c1.8-8.72,1.86-19.13,2.73-19.62a4.72,4.72,0,0,1,1.42-.56,2.4,2.4,0,0,1,.93,0c2,.53,2.33,4.5,1.83,9.17a67,67,0,0,1-1.35,7.76A50.49,50.49,0,0,1,706,84.61a.32.32,0,0,0,0,.23l1.29-.72c1.06-.59,2.24-1.23,3.52-1.89.88-.46,1.8-.93,2.76-1.4-2.32-10.12,2.05-22,5.28-33.28,1.07-.43,2.14-.84,3.22-1.24l.32-.12c-1.79,9.34-3.43,18.49-3.22,27.5-.49,1.73-1,3.46-1.45,5.17l1.68-.75c1.17-.51,2.35-1,3.53-1.5l1.41-3.27c.49-6.07,2.75-20,3.46-19.82a.91.91,0,0,1,.22.11c1.52,1-.18,7.82-1.41,14.45-.51,2.68-1,5.33-1.21,7.54l1.93-.73,1.71-.63a116.47,116.47,0,0,1,4.68-13.11c-.73,4-1.28,8.05-1.61,12l.22-.07c1.06-.35,2.07-.67,3-1l.6-.19c1.59-.48,3-.88,4.13-1.2,1.62-3.37,3.38-6.72,5.15-10.05q-.47,3.2-.63,6.35a24.89,24.89,0,0,0,2.29-3.29c2.94-4.91,4.25-10.2,5.23-12.24a1.91,1.91,0,0,1,.16-.32,1.29,1.29,0,0,1,.44-.53c2.05-1-.07,10.73-3.3,17.06,0-.41-.16,0-.06.11v0A12.62,12.62,0,0,1,747.94,70l.22,0c1.71-.27,3.93-.59,6.37-.86,1.2-.13,2.44-.25,3.71-.36h.08c0-.06,0-.12,0-.18,3.07-4.31,6-8.78,8.71-13.33a87.33,87.33,0,0,0-2.39,13.11l1.86-.06.76,0c2.46-.05,4.58,0,6,0h.54a2.1,2.1,0,0,0,.56-.38c4.75-4.95,1.93-18.25,8.63-21,.13,0,.26-.11.4-.15,1.7-.52-1,10.66-2,16.89-.39,2.26-.58,3.87-.36,4l.52,0q.64,0,1.29-.09c1.15-.08,2.35-.18,4-.19.76-4.33,4.16-16.6,4.51-16.56a1.39,1.39,0,0,1,.86.33c1.24,1.1.29,4.65-.9,8.25-1.09,3.26-2.37,6.58-2.63,8.12l2.62,0,.69,0,1.86,0c2.4.06,4.92.15,7.49.27l3.75.19.15-.22c.37-.53.75-1.1,1.12-1.71a28.91,28.91,0,0,0,1.76-3.27A14.74,14.74,0,0,0,809,57c0-4.81-1.07-10.17.59-10.7.68-.21,1.31,1,1.85,2.92a69.79,69.79,0,0,1,3.88-9.11h0a69.79,69.79,0,0,0-3.88,9.11c1.28,4.5,2,13.22,2.28,19.18l1.93.07,2.36.06c.75,0,1.5,0,2.22,0,1.29,0,2.54,0,3.77-.1-.31-8.82-1.86-17.48-.83-26.4l.83.22c1.88,8.79,2.36,17.16,3.73,25.94l.77-.08c1.68-.17,3.3-.39,4.84-.67h.05c1.17-.22,2.29-.49,3.38-.78-.39-7-.81-13.91-1.85-21l2.54.91a156.52,156.52,0,0,1,4.39,18.26l.85-.41c0-2.16.17-4.28.36-6.4-.19,2.12-.34,4.24-.36,6.4a24.37,24.37,0,0,0,3.69-2.25h0c.57-.43,1.12-.9,1.65-1.38a22.83,22.83,0,0,0,2.34-2.47,23.58,23.58,0,0,0,3.08-5c1.74.83,3.46,1.68,5.14,2.55,4.21,2.18,8.05,4.28,11.78,6.54s7.21,4.52,10.5,6.82,6.47,4.46,9.37,6.66c5.8,4.41,10.69,8.64,14.67,12.2,7.91,7.24,12.18,12,12.2,12l1.44-2.63S914.22,92.75,906.23,85.47Z" transform="translate(-436.69 32.92)"/><path class="cls-4" d="M652.79,149.84c0,.06-.08.1-.08.13Z" transform="translate(-436.69 32.92)"/><path class="cls-4" d="M744.7,146.45s.09-1.1.27-2.81l-1.41,3.27Z" transform="translate(-436.69 32.92)"/><path class="cls-4" d="M700,175l.11-.09-.09-.44C700.05,174.65,700,174.83,700,175Z" transform="translate(-436.69 32.92)"/><path class="cls-4" d="M926.91,155.77c-4-3.58-8.93-7.8-14.73-12.2-2.9-2.2-6-4.43-9.38-6.65s-6.88-4.64-10.64-6.9-7.81-4.47-11.83-6.56c-1.67-.88-3.39-1.73-5.13-2.57a33.4,33.4,0,0,0,1-3.65c.1-.84,1.41-5.47-1.75-12.78a40.22,40.22,0,0,0-5-8.28c-.27-.35-.54-.71-.82-1.06a53.15,53.15,0,0,0-4.39-4.72A122.81,122.81,0,0,1,863,115.55l-1.08-.42a69.71,69.71,0,0,0-1-17.17c.17-3.37.4-6.74.59-10.11-1.53-1.29-3.21-2.59-5.06-3.88q-2.39-1.68-5.17-3.31t-6-3.23a85.13,85.13,0,0,1,9.67,23.6h0a112.41,112.41,0,0,1,.06,11.61l-2.63-.86c-.84-11.33-5.81-23.49-8.31-34.93-1.14-.54-2.33-1.08-3.56-1.6l-2.22-.9,0,0c-2.13-.84-4.38-1.65-6.75-2.4a72.34,72.34,0,0,1,3.47,9.95,16.79,16.79,0,0,1,.54,3.27c0,1.3.14,6.9-.66,7.66a.31.31,0,0,1-.18.09c-.14,0-.31-.11-.5-.39-.63-.92-.73-2.33-.88-4.21a28.08,28.08,0,0,0-2.12-9.53c.25,1.44.53,2.89.85,4.34-.32-1.45-.6-2.9-.85-4.34a26.12,26.12,0,0,0-1.85-3.58,44.31,44.31,0,0,0-3.39-4.87c-1.68-.44-3.39-.86-5.17-1.24L819,68.75c-.89-.16-1.84-.33-2.84-.48a75.34,75.34,0,0,1,7,7.67c3.47,4.37,6.42,9.51,5.31,11.8a1.78,1.78,0,0,1-.78.85c-.34.19-4.93-4.69-10.24-9.68-2.73-2.59-5.63-5.21-8-7.3-1.32-1.15-2.49-2.13-3.37-2.88-1.12-.94-1.81-1.49-1.8-1.49-.68,0-1.32,0-2,0h-1c-1.65,0-3.32.07-5,.17,6.91,12.35,15.07,24.7,21.54,37.46-1.75-.17-3.5-.31-5.27-.42C804.89,92.19,800,79.57,792.78,67.63l-1.26.12c-2,.19-4,.43-5.95.69l-3.69.5-3.77.57a.35.35,0,0,0,.09.28c2.67,3,8.51,6.89,13.57,10.76a43.69,43.69,0,0,1,7.3,6.59c1.54,1.85,2.24,3.44,1.59,4.55a2.11,2.11,0,0,1-.65.69c-.32.22-2.58-2.2-6-5.45a102.29,102.29,0,0,0-8.64-7.47,61.63,61.63,0,0,0-7.81-5.13,32.65,32.65,0,0,0-4.79-2.16,16.87,16.87,0,0,0-4.19-1l-.32,0-1.4.29q1.92,2.31,3.68,4.71c-1-.91-2-1.82-3.1-2.71-.45-.62-.89-1.23-1.35-1.85l-.68.15c-1.82.38-3.81.82-5.93,1.33l-3.07.78-1.16.29-2.67.72c-2.13.59-4.29,1.23-6.4,1.89l-.3.09c-1.76.55-3.48,1.12-5.13,1.68l-.15,0c-3.35,1.15-6.41,2.3-8.87,3.27-.12.22-.12.39.11.47,2.37.4,21.72,7.28,22.31,13.83a3.2,3.2,0,0,1-.79,2.61,5.42,5.42,0,0,1-.41.43c.1.1-10.9-14.37-28.11-13.52-.67,0-1.34.09-2,.18-1.24.61-2.61,1.31-4.08,2.08,11.12,3.1,22.5,8.69,19.24,8.77a179.24,179.24,0,0,0-21.44-7.61c-2.76,1.49-5.75,3.17-8.72,4.95l-1.48.9a172.08,172.08,0,0,1,44.54,16.83l-.68.21c-2.29-1-4.67-2-7.12-2.81-13.6-6.64-29.37-7.59-44.77-9.08-1.64,1.11-3.19,2.18-4.59,3.18l-2.87,2.08-2.36,1.77c-.1,0,18.41-.79,24.07,1,1.61.4,2.27.85,1.36,1.32a17,17,0,0,1-2.6,1c-9.91,3.18-24.29-.51-31.21,3.56-.11.12-.23.24-.34.37l-.06.05-.84.92c-.79.86-1.59,1.74-2.4,2.65-1.8,2-3.65,4.18-5.48,6.39l-.24.29c.42-.13.83-.23,1.24-.35,16.16-1,33.42-3.14,49.54-.23q2-1.09,4.12-2.14c-1.51.76-3,1.53-4.48,2.34l-1.72.94-.8.45c-1.5.86-3,1.75-4.45,2.65l1.44-.89c.56-.34,1.13-.67,1.69-1-16.05-1.58-33.55.52-50.13,2.64-2.83,3.62-5.56,7.34-8.07,11-.66,1-1.31,1.91-1.94,2.86-.29.42-.57.85-.85,1.27-1.27,1.92-2.46,3.79-3.56,5.56,1.57-1.62,27-15.23,33-12.78.27.09-8.53,2.79-17.35,6.88a175.25,175.25,0,0,0-17.66,9.13c-.54.9-1,1.76-1.52,2.59-.23.38-.44.76-.65,1.12-.86,1.5-1.61,2.85-2.23,4-.06.42,0,.64.25.56,11.06-4.78,35.19-20,30.8-12.71-.85,1.22-19.68,6.78-30.74,17.74a38.32,38.32,0,0,0-3.11,3.32,25.81,25.81,0,0,0-2.55,3.62,3.72,3.72,0,0,0-.21.39,19.63,19.63,0,0,0-1.74,5.24c-.18.91-.33,1.88-.45,2.88-.15,1.25-.25,2.56-.3,3.91q0,1.05,0,2.13c0,1.62.07,3.29.19,5a145.92,145.92,0,0,1,29.87-20.1c-1.54,2.34-3,4.66-4.37,6.93-.35.63-.68,1.25-1,1.87v-.22l-.41.67c.13-.2.25-.4.37-.6a170.7,170.7,0,0,0-24.15,14.4c.22,1.94.52,3.89.88,5.79h0c.22,1.18.47,2.34.73,3.48.47,2,1,3.92,1.57,5.72.35,1.08.71,2.12,1.07,3.1a43.27,43.27,0,0,0,2.31,5.21c1.15,2.15,2.25,3.57,3.15,4,0-.54,0-1.1,0-1.65v0c0,.56,0,1.12,0,1.67.86.4,1.53-.11,1.92-1.81a17.69,17.69,0,0,1,1.36-3.67c.35-.72.77-1.46,1.21-2.21a42.51,42.51,0,0,1,2.79-4.09l.24-.3,1.12-1.37c.54-.64,1.09-1.28,1.67-1.92.79-.87,1.62-1.74,2.47-2.6.64-.63,1.29-1.25,2-1.87l.39-.36c-.55-6.55-.55-13.34-.63-20,.39-.71.79-1.42,1.2-2.14,1.42,6,3.29,11.6,4.89,17.52l.48-.38c1.27-1,2.53-1.93,3.76-2.82l.54-.39,1.91-1.34c1.44-1,2.79-1.89,4-2.71l.46-.31c1-.63,1.84-1.22,2.61-1.75,1.91-1.33,3.18-2.35,3.46-3.08l.12-.39c1-4.58-1.38-22-.08-23.6a1.52,1.52,0,0,1,.43-.4c1.24-.74,1.46,3.84,1.94,8.91.5,5.51,1.41,11.55,3.18,12.37,1-1,2-1.95,3.55-3.34l1.17-1c.34-.31.71-.64,1.11-1a114.38,114.38,0,0,1,.45-13.75c.41-4.51,1-8.31,1.36-8.29,1.8.16.47,14.65.47,19.57l.09.44.91-.76c1.07-.87,2.17-1.76,3.3-2.63,1.5-1.17,3-2.32,4.53-3.4l.85-.61c1.86-1.32,3.67-2.54,5.29-3.59l1.07-.69,2.12-1.33a10.08,10.08,0,0,0,2.78-3.63,33.21,33.21,0,0,0,2.24-7.26c1.8-8.72,1.86-19.13,2.73-19.62a4.72,4.72,0,0,1,1.42-.56,2.41,2.41,0,0,1,.93,0c2,.53,2.33,4.5,1.83,9.17a67,67,0,0,1-1.35,7.76,50.49,50.49,0,0,1-2.14,7.15.32.32,0,0,0,0,.23l1.29-.72c1.06-.59,2.24-1.23,3.52-1.89.88-.46,1.8-.93,2.76-1.4-2.32-10.12,2-22,5.28-33.28,1.07-.43,2.14-.84,3.22-1.24l.32-.12c-1.8,9.34-3.44,18.49-3.23,27.5-.48,1.73-1,3.46-1.44,5.17l1.68-.75c1.16-.51,2.34-1,3.53-1.5l1.41-3.27c.48-6.07,2.74-20,3.46-19.82a.91.91,0,0,1,.22.11c1.52,1-.19,7.82-1.42,14.45-.51,2.68-1,5.33-1.2,7.54l1.92-.73,1.71-.63a118.57,118.57,0,0,1,4.69-13.11,119.75,119.75,0,0,0-1.61,12l.22-.07c1.06-.35,2.07-.67,3-1l.59-.19c1.59-.48,3-.88,4.14-1.2,1.62-3.37,3.37-6.72,5.15-10.05-.32,2.13-.52,4.25-.63,6.35a26.93,26.93,0,0,0,2.29-3.29c2.93-4.91,4.24-10.2,5.22-12.24l.16-.32a1.47,1.47,0,0,1,.44-.53c2.06-1-.06,10.73-3.29,17.06,0-.41-.17,0-.06.11v0a13.28,13.28,0,0,1-1.37,2.13l.22,0c1.71-.27,3.93-.59,6.37-.86,1.2-.13,2.44-.25,3.7-.36H779a1.21,1.21,0,0,1,0-.18c3.07-4.31,6-8.78,8.71-13.33a86.08,86.08,0,0,0-2.39,13.11l1.86-.06.75,0c2.47-.05,4.59,0,6,0h.55a1.89,1.89,0,0,0,.55-.38c4.75-5,1.93-18.25,8.64-21,.13,0,.26-.11.39-.15,1.71-.52-1,10.66-2,16.89-.38,2.26-.58,3.87-.36,4s.35,0,.53,0l1.28-.08c1.16-.09,2.36-.19,4-.2.77-4.33,4.17-16.6,4.51-16.56a1.34,1.34,0,0,1,.86.33c1.25,1.1.3,4.65-.9,8.25-1.09,3.26-2.36,6.58-2.63,8.12l2.62,0,.7,0,1.86,0c2.4.06,4.92.15,7.48.27l3.76.19.15-.22c.37-.53.74-1.1,1.12-1.71a30.59,30.59,0,0,0,1.76-3.27,14.74,14.74,0,0,0,.82-5.8c0-4.81-1.07-10.17.58-10.7.68-.21,1.32,1,1.86,2.92a70.44,70.44,0,0,1,3.87-9.12h0a69.73,69.73,0,0,0-3.87,9.11c1.28,4.5,2,13.22,2.28,19.18l1.93.07,2.35.06c.76,0,1.5,0,2.22,0,1.29,0,2.55,0,3.77-.1-.3-8.82-1.85-17.48-.83-26.4l.83.22c1.88,8.79,2.37,17.16,3.74,25.94l.76-.08c1.69-.17,3.3-.39,4.85-.67h0c1.17-.22,2.29-.49,3.38-.78-.39-7-.81-13.91-1.85-21l2.54.91a156.52,156.52,0,0,1,4.39,18.26l.85-.41c0-2.16.17-4.28.36-6.4-.19,2.12-.34,4.24-.36,6.4a24.77,24.77,0,0,0,3.68-2.25h0c.58-.43,1.13-.9,1.66-1.38a21.81,21.81,0,0,0,2.33-2.47,23.21,23.21,0,0,0,3.09-5c1.74.83,3.46,1.68,5.14,2.55,4.21,2.18,8,4.28,11.78,6.54s7.21,4.52,10.49,6.82,6.48,4.46,9.38,6.66c5.8,4.41,10.69,8.64,14.67,12.2,7.91,7.24,12.18,12,12.2,12,.48-.88,1-1.75,1.43-2.63C939.17,167.81,934.9,163.05,926.91,155.77Z" transform="translate(-436.69 32.92)"/></g></g></g></svg>