<?xml version="1.0" encoding="UTF-8"?><svg xmlns="http://www.w3.org/2000/svg" viewBox="0 0 189.81 187.21"><defs><style>.cls-1{isolation:isolate;}.cls-2{fill:#fffff4;}.cls-3{fill:#318193;}.cls-4{fill:#449daf;mix-blend-mode:multiply;opacity:.29;}.cls-5{fill:#3ea2b9;}</style></defs><g class="cls-1"><g id="Layer_2"><g id="OBJECTS"><g><g><rect class="cls-5" x="94.77" y="93.61" width="0" height="0"/><polygon class="cls-5" points="94.77 93.61 94.77 93.61 94.77 93.61 94.77 93.61 94.77 93.61 94.77 93.61"/><polygon class="cls-5" points="94.77 93.61 94.77 93.61 94.77 93.61 94.77 93.61"/><path class="cls-3" d="M142.12,175.63c-1.34-1.68-8.56-.76-16.7,2.2-8.1,2.95-14.21,6.87-14.21,9.03l-13.58-77-2.86-16.25,8.25,14.29,39.1,67.73Z"/><path class="cls-2" d="M111.21,186.86v.03c-.67-2.05-7.78-3.65-16.44-3.65s-15.7,1.59-16.44,3.62v.02c0,.11-.02,.23-.06,.33h-.01l.02-.13s.01-.05,.01-.07v-.05s.04-.13,.04-.13h0s13.57-76.97,13.57-76.97l2.87-16.25,2.86,16.25,13.58,77Z"/><path class="cls-2" d="M183.03,109.17c-1.5,8.55-1.15,15.84,.75,16.84l-73.5-26.75-15.51-5.65h94.77c-2.14,.2-4.99,6.96-6.51,15.56Z"/><path class="cls-3" d="M110.28,99.26l73.5,26.75c-2.11-.45-7.06,4.9-11.4,12.41-4.33,7.51-6.49,14.47-5.06,16.07l-59.91-50.27-12.64-10.61,15.51,5.65Z"/><path class="cls-2" d="M167.32,154.49c-1.84-1.13-8.31,2.21-14.94,7.78-6.64,5.57-11.05,11.38-10.24,13.37h0s0,0,0,0c0,0,0,0-.01,0l-39.1-67.73-8.25-14.29,12.64,10.61,59.91,50.27Z"/><path class="cls-5" d="M94.77,93.61l-12.64,10.61-59.92,50.27c1.43-1.6-.73-8.56-5.06-16.07s-9.28-12.86-11.39-12.41l73.5-26.75,15.51-5.65Z"/><path class="cls-3" d="M94.77,93.61l-2.87,16.25-13.57,76.96c-.07-2.16-6.16-6.05-14.21-8.99-8.14-2.96-15.36-3.88-16.7-2.2l39.1-67.73,8.25-14.29Z"/><path class="cls-2" d="M94.77,93.61l-15.51,5.65L5.76,126.01c1.9-1,2.25-8.29,.75-16.84-1.53-8.6-4.37-15.36-6.51-15.56H94.77Z"/><path class="cls-2" d="M94.77,93.61l-8.25,14.29-39.1,67.73-.02,.02h0c.81-2-3.6-7.81-10.24-13.38-6.63-5.57-13.11-8.91-14.95-7.78l59.92-50.27,12.64-10.61Z"/><path class="cls-5" d="M94.77,93.61H0c2.14-.2,4.98-6.95,6.51-15.56,1.5-8.55,1.15-15.83-.75-16.83l73.5,26.75,15.51,5.64Z"/><path class="cls-2" d="M94.77,93.61l-15.51-5.64L5.76,61.22c2.1,.44,7.06-4.91,11.39-12.42,4.33-7.5,6.49-14.46,5.06-16.07l59.92,50.27,12.64,10.61Z"/><path class="cls-5" d="M184.08,61.11c-.06,.04-.13,.06-.2,.08-.02,.01-.04,.02-.06,.02h0s.26-.1,.26-.1Z"/><path class="cls-3" d="M189.54,93.61H94.77l15.51-5.64,73.5-26.75c-1.9,1-2.25,8.28-.75,16.83,1.52,8.61,4.37,15.36,6.51,15.56Z"/><path class="cls-2" d="M94.77,93.61l-8.25-14.29L47.42,11.59c1.34,1.69,8.56,.76,16.7-2.2,8.05-2.93,14.14-6.82,14.21-8.98l13.57,76.95,2.87,16.25Z"/><path class="cls-5" d="M94.77,93.61l-12.64-10.61L22.21,32.73c1.84,1.13,8.32-2.2,14.95-7.77,6.64-5.57,11.05-11.38,10.25-13.38,0,0,0,.01,.01,.01l39.1,67.73,8.25,14.29Z"/><path class="cls-5" d="M78.33,.36h0s-.01-.02-.01-.02c-.01-.01-.01-.02-.01-.03l-.05-.29h.01c.04,.11,.06,.22,.06,.34Z"/><path class="cls-5" d="M111.21,.34v.03l-13.58,76.99-2.86,16.25-2.87-16.25L78.33,.41v-.04c.74,2.03,7.82,3.62,16.44,3.62s15.76-1.61,16.44-3.65Z"/><path class="cls-5" d="M167.32,32.73l-59.91,50.27-12.64,10.61,8.25-14.29L142.12,11.59s.02-.01,.02-.01c-.81,2,3.6,7.81,10.24,13.38,6.63,5.57,13.1,8.9,14.94,7.77Z"/><path class="cls-2" d="M183.78,61.22l-73.5,26.75-15.51,5.64,12.64-10.61,59.91-50.27c-1.43,1.61,.73,8.57,5.06,16.07,4.34,7.51,9.3,12.86,11.4,12.42Z"/><path class="cls-4" d="M111.21,186.86v.03c-.67-2.05-7.78-3.65-16.44-3.65s-15.7,1.59-16.44,3.62v.02c0,.11-.02,.23-.06,.33h-.01l.02-.13s.01-.05,.01-.07v-.05s.04-.13,.04-.13h0s13.57-76.97,13.57-76.97l2.87-16.25,2.86,16.25,13.58,77Z"/><path class="cls-4" d="M183.03,109.17c-1.5,8.55-1.15,15.84,.75,16.84l-73.5-26.75-15.51-5.65h94.77c-2.14,.2-4.99,6.96-6.51,15.56Z"/><path class="cls-4" d="M167.32,154.49c-1.84-1.13-8.31,2.21-14.94,7.78-6.64,5.57-11.05,11.38-10.24,13.37h0s0,0,0,0c0,0,0,0-.01,0l-39.1-67.73-8.25-14.29,12.64,10.61,59.91,50.27Z"/><path class="cls-4" d="M94.77,93.61l-8.25,14.29-39.1,67.73-.02,.02h0c.81-2-3.6-7.81-10.24-13.38-6.63-5.57-13.11-8.91-14.95-7.78l59.92-50.27,12.64-10.61Z"/><path class="cls-4" d="M183.78,61.22l-73.5,26.75-15.51,5.64,12.64-10.61,59.91-50.27c-1.43,1.61,.73,8.57,5.06,16.07,4.34,7.51,9.3,12.86,11.4,12.42Z"/><path class="cls-2" d="M142.12,11.59l-39.1,67.73-8.25,14.29,2.86-16.25L111.21,.37c0,2.16,6.11,6.08,14.21,9.02,8.14,2.96,15.36,3.89,16.7,2.2Z"/></g><polygon class="cls-5" points="110.28 87.97 107.41 83 103.02 79.32 97.63 77.36 91.9 77.36 86.52 79.32 82.13 83 79.26 87.97 78.27 93.61 79.26 99.26 82.13 104.22 86.52 107.9 91.9 109.86 97.63 109.86 103.02 107.9 107.41 104.22 110.28 99.26 111.27 93.61 110.28 87.97"/><path class="cls-5" d="M78.33,.36s-.01-.01-.01-.02c-.01-.01-.01-.02-.01-.03l-.05-.29v-.02s.01,.01,.01,.02c.04,.11,.06,.22,.06,.34Z"/><path class="cls-5" d="M78.33,.36h0v-.02s-.02-.02-.02-.03l-.05-.29v-.02s.01,.01,.01,.02c.04,.11,.06,.22,.06,.34Z"/><path class="cls-5" d="M47.4,175.64s.01,0,.02,0l-.02,.02h0Z"/><path class="cls-5" d="M78.33,186.83v.05c0,.11-.02,.23-.06,.33h-.01l.02-.13s.01-.05,.01-.07v-.05s.04-.13,.04-.13Z"/><path class="cls-5" d="M78.3,186.96s.02-.05,.03-.08c0,.11-.02,.23-.06,.33,0-.04,0-.09,.01-.13,0-.03,.01-.05,.01-.07v-.05Z"/><path class="cls-5" d="M142.14,175.64h0s0,0,0,0h0Z"/><path class="cls-5" d="M189.81,93.61c-.06,.01-.11,.01-.17,.01-.03,0-.07,0-.1-.01h.27Z"/><path class="cls-5" d="M183.88,61.19s-.04,.02-.06,.02h0s.04-.01,.06-.02Z"/><path class="cls-5" d="M189.81,93.61c-.06,.01-.11,.01-.17,.01-.03,0-.07,0-.1-.01h.27Z"/><path class="cls-5" d="M184.08,61.11c-.06,.04-.13,.06-.2,.08-.02,.01-.04,.02-.06,.02h0s.26-.1,.26-.1Z"/></g></g></g></g></svg>